{"glyphs":{"0":{"ha":980,"x_min":75,"x_max":905,"o":"m 207 488 q 494 95 207 95 q 773 488 773 95 q 494 875 773 875 q 207 488 207 875 m 75 484 q 494 977 75 977 q 905 484 905 977 q 494 -7 905 -7 q 75 484 75 -7 z "},"1":{"ha":437,"x_min":68,"x_max":295,"o":"m 170 0 l 170 848 l 68 848 l 68 909 l 295 977 l 295 0 l 170 0 z "},"2":{"ha":777,"x_min":41,"x_max":705,"o":"m 41 0 l 41 102 q 580 692 580 473 q 349 875 580 875 q 68 800 200 875 l 68 909 q 349 977 200 977 q 705 692 705 977 q 220 102 705 441 l 705 102 l 705 0 l 41 0 z "},"3":{"ha":780,"x_min":68,"x_max":688,"o":"m 68 936 q 339 977 203 977 q 688 712 688 977 q 561 492 688 552 q 688 271 688 434 q 339 -7 688 -7 q 68 34 203 -7 l 68 142 q 339 95 203 95 q 563 271 563 95 q 392 441 563 441 l 170 441 l 170 543 l 390 543 q 563 712 563 543 q 339 875 563 875 q 68 827 203 875 l 68 936 z "},"4":{"ha":827,"x_min":41,"x_max":777,"o":"m 676 0 l 551 0 l 551 231 l 41 231 l 41 332 l 431 970 l 562 970 l 172 332 l 551 332 l 551 677 l 676 677 l 676 332 l 777 281 l 777 231 l 676 231 l 676 0 z "},"5":{"ha":797,"x_min":85,"x_max":729,"o":"m 105 970 l 691 970 l 691 868 l 212 868 l 196 568 q 363 583 275 583 q 729 305 729 583 q 349 -7 729 -7 q 85 34 220 -7 l 85 142 q 356 95 220 95 q 604 305 604 95 q 363 481 604 481 q 85 454 210 481 l 105 970 z "},"6":{"ha":854,"x_min":68,"x_max":793,"o":"m 68 373 q 514 999 68 750 l 579 913 q 231 588 334 793 q 445 624 319 624 q 793 319 793 624 q 425 -7 793 -7 q 68 373 68 -7 m 186 377 q 431 95 186 95 q 671 319 671 95 q 439 522 671 522 q 205 490 294 522 q 186 377 186 449 z "},"7":{"ha":739,"x_min":44,"x_max":688,"o":"m 44 970 l 688 970 l 688 868 l 280 0 l 144 0 l 566 868 l 44 868 l 44 970 z "},"8":{"ha":841,"x_min":68,"x_max":773,"o":"m 68 288 q 212 505 68 439 q 95 731 95 576 q 420 979 95 979 q 746 731 746 979 q 626 505 746 576 q 773 288 773 439 q 420 -7 773 -7 q 68 288 68 -7 m 424 556 q 621 718 621 556 q 415 875 621 875 q 220 718 220 875 q 424 556 220 556 m 424 95 q 648 283 648 95 q 415 454 648 454 q 193 283 193 454 q 424 95 193 95 z "},"9":{"ha":854,"x_min":68,"x_max":793,"o":"m 793 592 q 347 -34 793 215 l 282 52 q 631 377 528 172 q 416 334 542 334 q 68 646 68 334 q 436 972 68 972 q 793 592 793 972 m 675 588 q 430 870 675 870 q 191 646 191 870 q 422 443 191 443 q 656 475 568 443 q 675 588 675 516 z "}," ":{"ha":339,"x_min":0,"x_max":0,"o":""},"!":{"ha":329,"x_min":102,"x_max":227,"o":"m 227 970 l 227 251 l 102 251 l 102 970 l 227 970 m 227 125 l 227 0 l 102 0 l 102 125 l 227 125 z "},"\"":{"ha":512,"x_min":68,"x_max":444,"o":"m 444 970 l 424 675 l 339 675 l 319 970 l 444 970 m 193 970 l 173 675 l 88 675 l 68 970 l 193 970 z "},"#":{"ha":1284,"x_min":68,"x_max":1216,"o":"m 545 594 l 484 338 l 739 338 l 800 594 l 545 594 m 273 -3 l 334 233 l 68 233 l 88 338 l 361 338 l 421 594 l 149 594 l 170 699 l 449 699 l 517 966 l 639 966 l 571 699 l 827 699 l 897 970 l 1019 970 l 950 699 l 1216 699 l 1196 594 l 923 594 l 863 338 l 1135 338 l 1114 233 l 835 233 l 774 -3 l 652 -3 l 713 233 l 456 233 l 395 -3 l 273 -3 z "},"$":{"ha":712,"x_min":68,"x_max":644,"o":"m 318 840 l 318 970 l 437 970 l 437 838 q 617 807 528 831 l 617 699 q 364 739 492 739 q 186 637 186 739 q 298 543 186 543 l 400 543 q 644 332 644 543 q 437 134 644 162 l 437 0 l 318 0 l 318 130 q 95 163 205 133 l 95 271 q 349 231 220 231 q 519 332 519 231 q 400 427 519 427 l 298 427 q 68 637 68 427 q 318 840 68 825 z "},"%":{"ha":964,"x_min":68,"x_max":897,"o":"m 207 0 l 68 0 l 758 970 l 897 970 l 207 0 m 156 802 q 256 702 156 702 q 354 802 354 702 q 256 899 354 899 q 156 802 156 899 m 68 800 q 256 977 68 977 q 442 800 442 977 q 256 625 442 625 q 68 800 68 625 m 610 170 q 711 71 610 71 q 808 170 808 71 q 711 268 808 268 q 610 170 610 268 m 522 169 q 711 345 522 345 q 897 169 897 345 q 711 -7 897 -7 q 522 169 522 -7 z "},"&":{"ha":865,"x_min":68,"x_max":865,"o":"m 68 709 q 414 970 68 970 q 658 936 539 970 l 658 834 q 422 868 539 868 q 193 712 193 868 q 366 543 193 543 l 629 543 l 629 639 l 672 639 l 741 543 l 865 543 l 865 441 l 755 441 l 755 332 q 404 -2 755 -2 q 68 267 68 -2 q 199 493 68 435 q 68 709 68 551 m 368 441 q 193 271 193 441 q 397 102 193 102 q 629 334 629 102 l 629 441 l 368 441 z "},"'":{"ha":261,"x_min":68,"x_max":193,"o":"m 193 970 l 173 675 l 88 675 l 68 970 l 193 970 z "},"(":{"ha":397,"x_min":68,"x_max":329,"o":"m 329 970 q 193 356 193 663 q 329 -258 193 49 l 203 -258 q 68 356 68 49 q 203 970 68 663 l 329 970 z "},")":{"ha":397,"x_min":68,"x_max":329,"o":"m 193 970 q 329 356 329 663 q 193 -258 329 49 l 68 -258 q 203 356 203 49 q 68 970 203 663 l 193 970 z "},"*":{"ha":549,"x_min":68,"x_max":482,"o":"m 222 970 l 328 970 l 308 812 l 450 881 l 482 781 l 328 752 l 435 637 l 352 574 l 275 713 l 199 575 l 115 635 l 224 751 l 68 780 l 100 882 l 243 812 l 222 970 z "},"+":{"ha":644,"x_min":68,"x_max":576,"o":"m 271 407 l 271 610 l 373 610 l 373 407 l 576 407 l 576 305 l 373 305 l 373 102 l 271 102 l 271 305 l 68 305 l 68 407 l 271 407 z "},",":{"ha":261,"x_min":17,"x_max":244,"o":"m 244 125 l 142 -170 l 17 -170 l 119 125 l 244 125 z "},"-":{"ha":475,"x_min":68,"x_max":407,"o":"m 407 407 l 407 305 l 68 305 l 68 407 l 407 407 z "},".":{"ha":261,"x_min":68,"x_max":193,"o":"m 193 125 l 193 0 l 68 0 l 68 125 l 193 125 z "},"/":{"ha":665,"x_min":17,"x_max":648,"o":"m 156 0 l 17 0 l 509 970 l 648 970 l 156 0 z "},":":{"ha":295,"x_min":102,"x_max":227,"o":"m 227 712 l 227 587 l 102 587 l 102 712 l 227 712 m 227 125 l 227 0 l 102 0 l 102 125 l 227 125 z "},";":{"ha":363,"x_min":68,"x_max":295,"o":"m 295 712 l 295 587 l 170 587 l 170 712 l 295 712 m 295 125 l 193 -170 l 68 -170 l 170 125 l 295 125 z "},"<":{"ha":746,"x_min":68,"x_max":678,"o":"m 68 305 l 68 407 l 678 678 l 678 576 l 174 353 l 678 136 l 678 34 l 68 305 z "},"=":{"ha":644,"x_min":68,"x_max":576,"o":"m 576 305 l 576 203 l 68 203 l 68 305 l 576 305 m 576 509 l 576 407 l 68 407 l 68 509 l 576 509 z "},">":{"ha":746,"x_min":68,"x_max":678,"o":"m 68 34 l 68 136 l 572 353 l 68 576 l 68 678 l 678 407 l 678 305 l 68 34 z "},"?":{"ha":756,"x_min":68,"x_max":688,"o":"m 295 125 l 295 0 l 170 0 l 170 125 l 295 125 m 68 936 q 339 970 210 970 q 688 705 688 970 q 351 441 688 441 l 295 441 l 295 251 l 170 251 l 170 543 l 349 543 q 563 705 563 543 q 339 868 563 868 q 68 834 210 868 l 68 936 z "},"@":{"ha":1458,"x_min":102,"x_max":1356,"o":"m 424 215 q 713 434 424 434 q 899 420 819 434 l 899 494 q 707 610 899 610 q 481 576 597 610 l 481 678 q 707 712 597 712 q 1024 484 1024 712 l 1024 60 q 1092 0 1024 0 q 1231 366 1231 0 q 739 875 1231 875 q 227 366 227 875 q 692 -156 227 -156 l 692 -258 q 102 366 102 -258 q 728 977 102 977 q 1356 366 1356 977 q 1067 -102 1356 -102 q 903 64 903 -102 q 678 0 804 0 q 424 215 424 0 m 899 319 q 713 332 824 332 q 549 217 549 332 q 678 102 549 102 q 899 171 808 102 l 899 319 z "},"A":{"ha":998,"x_min":17,"x_max":981,"o":"m 147 0 l 17 0 l 429 970 l 568 970 l 981 0 l 842 0 l 717 305 l 396 305 l 431 407 l 675 407 l 494 846 l 147 0 z "},"B":{"ha":902,"x_min":115,"x_max":818,"o":"m 115 0 l 115 970 l 529 970 q 806 744 806 970 q 625 507 806 578 q 818 287 818 471 q 515 0 818 0 l 115 0 m 507 102 q 681 278 681 102 q 448 450 681 450 l 394 450 l 394 532 q 672 732 672 569 q 517 868 672 868 l 241 868 l 241 102 l 507 102 z "},"C":{"ha":939,"x_min":68,"x_max":848,"o":"m 848 34 q 576 -7 722 -7 q 68 498 68 -7 q 576 977 68 977 q 848 936 722 977 l 848 827 q 590 875 722 875 q 193 498 193 875 q 590 95 193 95 q 848 142 722 95 l 848 34 z "},"D":{"ha":1017,"x_min":115,"x_max":949,"o":"m 468 102 q 824 511 824 102 q 468 868 824 868 l 241 868 l 241 102 l 468 102 m 115 0 l 115 970 l 468 970 q 949 511 949 970 q 468 0 949 0 l 115 0 z "},"E":{"ha":834,"x_min":115,"x_max":760,"o":"m 749 970 l 749 868 l 241 868 l 241 543 l 726 543 l 726 441 l 241 441 l 241 102 l 760 102 l 760 0 l 115 0 l 115 970 l 749 970 z "},"F":{"ha":783,"x_min":115,"x_max":749,"o":"m 749 970 l 749 868 l 241 868 l 241 543 l 726 543 l 726 441 l 241 441 l 241 0 l 115 0 l 115 970 l 749 970 z "},"G":{"ha":939,"x_min":68,"x_max":848,"o":"m 848 38 q 595 -7 730 -7 q 68 498 68 -7 q 576 977 68 977 q 848 936 722 977 l 848 827 q 590 875 722 875 q 193 498 193 875 q 584 95 193 95 q 722 111 646 95 l 722 441 l 848 441 l 848 38 z "},"H":{"ha":1055,"x_min":115,"x_max":939,"o":"m 115 0 l 115 970 l 241 970 l 241 543 l 814 543 l 814 970 l 939 970 l 939 0 l 814 0 l 814 441 l 241 441 l 241 0 l 115 0 z "},"I":{"ha":397,"x_min":136,"x_max":261,"o":"m 261 970 l 261 0 l 136 0 l 136 970 l 261 970 z "},"J":{"ha":468,"x_min":17,"x_max":346,"o":"m 346 970 l 346 279 q 17 0 346 0 l 17 102 q 220 279 220 102 l 220 970 l 346 970 z "},"K":{"ha":949,"x_min":115,"x_max":932,"o":"m 241 970 l 241 0 l 115 0 l 115 970 l 241 970 m 923 970 l 486 512 l 932 0 l 758 0 l 363 467 l 363 543 l 764 970 l 923 970 z "},"L":{"ha":782,"x_min":115,"x_max":748,"o":"m 241 970 l 241 102 l 748 102 l 748 0 l 115 0 l 115 970 l 241 970 z "},"M":{"ha":1248,"x_min":115,"x_max":1133,"o":"m 115 0 l 115 970 l 275 970 l 631 161 l 980 970 l 1133 970 l 1133 0 l 1021 0 l 1021 795 l 676 0 l 577 0 l 227 795 l 227 0 l 115 0 z "},"N":{"ha":1068,"x_min":115,"x_max":953,"o":"m 115 0 l 115 970 l 241 970 l 834 189 l 834 970 l 953 970 l 953 0 l 827 0 l 234 788 l 234 0 l 115 0 z "},"O":{"ha":1129,"x_min":81,"x_max":1048,"o":"m 214 488 q 568 95 214 95 q 916 488 916 95 q 568 875 916 875 q 214 488 214 875 m 81 484 q 568 977 81 977 q 1048 484 1048 977 q 568 -7 1048 -7 q 81 484 81 -7 z "},"P":{"ha":857,"x_min":115,"x_max":806,"o":"m 115 0 l 115 970 l 509 970 q 806 710 806 970 q 399 365 806 427 l 374 471 q 672 705 672 515 q 497 866 672 866 l 241 866 l 241 0 l 115 0 z "},"Q":{"ha":1129,"x_min":81,"x_max":1048,"o":"m 214 488 q 568 95 214 95 q 916 488 916 95 q 568 875 916 875 q 214 488 214 875 m 81 484 q 568 977 81 977 q 1048 484 1048 977 q 719 5 1048 78 l 876 -178 l 779 -252 l 568 -7 q 81 484 81 -7 z "},"R":{"ha":885,"x_min":115,"x_max":868,"o":"m 115 0 l 115 970 l 529 970 q 806 737 806 970 q 535 457 806 548 l 868 0 l 703 0 l 394 436 l 394 518 q 672 732 672 562 q 517 866 672 866 l 241 866 l 241 0 l 115 0 z "},"S":{"ha":875,"x_min":68,"x_max":807,"o":"m 102 34 l 102 149 q 431 95 254 95 q 682 278 682 95 q 497 434 682 434 l 372 434 q 68 699 68 434 q 458 977 68 977 q 773 936 627 977 l 773 821 q 458 875 627 875 q 193 699 193 875 q 372 543 193 543 l 497 543 q 807 278 807 543 q 431 -7 807 -7 q 102 34 254 -7 z "},"T":{"ha":804,"x_min":34,"x_max":770,"o":"m 770 970 l 770 868 l 465 868 l 465 0 l 339 0 l 339 868 l 34 868 l 34 970 l 770 970 z "},"U":{"ha":1024,"x_min":109,"x_max":916,"o":"m 109 374 l 109 970 l 234 970 l 234 374 q 512 95 234 95 q 790 374 790 95 l 790 970 l 916 970 l 916 374 q 512 -7 916 -7 q 109 374 109 -7 z "},"V":{"ha":998,"x_min":17,"x_max":981,"o":"m 981 970 l 570 0 l 431 0 l 17 970 l 149 970 l 505 130 l 851 970 l 981 970 z "},"W":{"ha":1289,"x_min":34,"x_max":1255,"o":"m 34 970 l 155 970 l 292 126 l 566 970 l 691 970 l 985 126 l 1139 970 l 1255 970 l 1072 0 l 901 0 l 627 812 l 362 0 l 193 0 l 34 970 z "},"X":{"ha":956,"x_min":17,"x_max":932,"o":"m 399 485 l 17 970 l 170 970 l 475 582 l 780 970 l 932 970 l 551 485 l 932 0 l 780 0 l 475 388 l 170 0 l 17 0 l 399 485 z "},"Y":{"ha":882,"x_min":17,"x_max":865,"o":"m 17 970 l 156 970 l 435 463 l 719 970 l 865 970 l 494 339 l 494 0 l 369 0 l 369 339 l 17 970 z "},"Z":{"ha":902,"x_min":85,"x_max":817,"o":"m 817 970 l 817 868 l 236 102 l 804 102 l 804 0 l 85 0 l 85 102 l 684 868 l 98 868 l 98 970 l 817 970 z "},"[":{"ha":441,"x_min":102,"x_max":407,"o":"m 407 970 l 407 868 l 227 868 l 227 -156 l 407 -156 l 407 -258 l 102 -258 l 102 970 l 407 970 z "},"\\":{"ha":665,"x_min":17,"x_max":648,"o":"m 17 970 l 156 970 l 648 0 l 509 0 l 17 970 z "},"]":{"ha":441,"x_min":34,"x_max":339,"o":"m 339 970 l 339 -258 l 34 -258 l 34 -156 l 214 -156 l 214 868 l 34 868 l 34 970 l 339 970 z "},"^":{"ha":712,"x_min":34,"x_max":678,"o":"m 305 970 l 407 970 l 678 475 l 576 475 l 353 884 l 136 475 l 34 475 l 305 970 z "},"_":{"ha":712,"x_min":17,"x_max":695,"o":"m 695 0 l 695 -102 l 17 -102 l 17 0 l 695 0 z "},"`":{"ha":409,"x_min":68,"x_max":341,"o":"m 341 808 l 230 808 l 68 970 l 230 970 l 341 808 z "},"a":{"ha":770,"x_min":68,"x_max":668,"o":"m 68 215 q 357 434 68 434 q 543 420 450 434 l 543 488 q 351 610 543 610 q 125 576 241 610 l 125 678 q 351 712 241 712 q 668 491 668 712 l 668 0 l 597 0 l 554 71 q 322 0 448 0 q 68 215 68 0 m 357 332 q 193 217 193 332 q 322 102 193 102 q 543 171 452 102 l 543 319 q 357 332 450 332 z "},"b":{"ha":806,"x_min":102,"x_max":738,"o":"m 227 124 q 377 104 289 104 q 614 375 614 104 q 399 604 614 604 q 227 567 302 604 l 227 124 m 102 970 l 227 970 l 227 678 q 400 712 308 712 q 738 370 738 712 q 383 0 738 0 q 102 29 230 0 l 102 970 z "},"c":{"ha":695,"x_min":68,"x_max":637,"o":"m 637 20 q 448 0 549 0 q 68 370 68 0 q 448 712 68 712 q 637 692 549 712 l 637 590 q 441 610 549 610 q 193 370 193 610 q 441 102 193 102 q 637 122 549 102 l 637 20 z "},"d":{"ha":807,"x_min":68,"x_max":705,"o":"m 580 567 q 406 604 504 604 q 191 375 191 604 q 406 104 191 104 q 580 131 504 104 l 580 567 m 705 43 q 386 0 576 0 q 68 370 68 0 q 406 712 68 712 q 580 678 498 712 l 580 970 l 705 970 l 705 43 z "},"e":{"ha":766,"x_min":68,"x_max":699,"o":"m 395 712 q 699 412 699 712 q 693 320 699 369 l 193 320 q 448 102 193 102 q 664 129 570 102 l 664 27 q 435 0 570 0 q 68 364 68 0 q 395 712 68 712 m 193 425 l 578 425 q 395 612 574 612 q 193 425 205 612 z "},"f":{"ha":482,"x_min":102,"x_max":547,"o":"m 102 0 l 102 747 q 395 1005 102 1005 q 547 978 475 1005 l 547 876 q 394 903 479 903 q 227 752 227 903 l 227 712 l 448 712 l 448 610 l 227 610 l 227 0 l 102 0 z "},"g":{"ha":805,"x_min":68,"x_max":703,"o":"m 578 591 q 418 608 513 608 q 191 361 191 608 q 406 109 191 109 q 578 145 504 109 l 578 591 m 703 0 q 376 -258 703 -258 q 142 -224 244 -258 l 142 -122 q 377 -156 246 -156 q 578 0 578 -156 l 578 34 q 406 0 498 0 q 68 360 68 0 q 424 712 68 712 q 703 683 568 712 l 703 0 z "},"h":{"ha":817,"x_min":102,"x_max":715,"o":"m 102 0 l 102 970 l 227 970 l 227 635 q 449 712 318 712 q 715 447 715 712 l 715 0 l 590 0 l 590 449 q 432 608 590 608 q 227 517 324 608 l 227 0 l 102 0 z "},"i":{"ha":356,"x_min":115,"x_max":241,"o":"m 241 712 l 241 0 l 115 0 l 115 712 l 241 712 m 241 970 l 241 851 l 115 851 l 115 970 l 241 970 z "},"j":{"ha":356,"x_min":31,"x_max":241,"o":"m 241 712 l 241 54 q 136 -270 241 -161 l 31 -199 q 115 54 115 -107 l 115 712 l 241 712 m 241 970 l 241 851 l 115 851 l 115 970 l 241 970 z "},"k":{"ha":801,"x_min":102,"x_max":757,"o":"m 102 0 l 102 970 l 227 970 l 227 656 q 467 712 331 712 q 732 507 732 712 q 529 300 732 357 l 757 0 l 598 0 l 372 302 l 372 358 q 607 507 607 379 q 458 610 607 610 q 227 547 340 610 l 227 0 l 102 0 z "},"l":{"ha":342,"x_min":109,"x_max":234,"o":"m 234 970 l 234 0 l 109 0 l 109 970 l 234 970 z "},"m":{"ha":1224,"x_min":102,"x_max":1122,"o":"m 102 0 l 102 712 l 186 712 l 208 623 q 431 712 310 712 q 642 614 585 712 q 877 712 758 712 q 1122 441 1122 712 l 1122 0 l 997 0 l 997 448 q 863 608 997 608 q 675 515 762 608 l 675 0 l 549 0 l 549 446 q 416 608 549 608 q 227 515 311 608 l 227 0 l 102 0 z "},"n":{"ha":817,"x_min":102,"x_max":715,"o":"m 102 0 l 102 712 l 186 712 l 209 621 q 449 712 318 712 q 715 447 715 712 l 715 0 l 590 0 l 590 449 q 432 608 590 608 q 227 517 324 608 l 227 0 l 102 0 z "},"o":{"ha":814,"x_min":68,"x_max":746,"o":"m 193 359 q 407 102 193 102 q 621 359 621 102 q 407 610 621 610 q 193 359 193 610 m 68 356 q 407 712 68 712 q 746 356 746 712 q 407 1 746 1 q 68 356 69 1 z "},"p":{"ha":805,"x_min":102,"x_max":737,"o":"m 227 145 q 392 109 301 109 q 614 375 614 109 q 393 608 614 608 q 227 591 298 608 l 227 145 m 102 683 q 395 712 243 712 q 737 374 737 712 q 393 0 737 0 q 227 34 307 0 l 227 -258 l 102 -258 l 102 683 z "},"q":{"ha":805,"x_min":68,"x_max":703,"o":"m 578 591 q 418 608 513 608 q 191 361 191 608 q 406 109 191 109 q 578 145 504 109 l 578 591 m 703 -258 l 578 -258 l 578 34 q 406 0 498 0 q 68 360 68 0 q 424 712 68 712 q 703 683 568 712 l 703 -258 z "},"r":{"ha":458,"x_min":102,"x_max":434,"o":"m 102 0 l 102 712 l 186 712 l 209 621 q 434 712 302 712 l 434 608 q 227 517 307 608 l 227 0 l 102 0 z "},"s":{"ha":712,"x_min":68,"x_max":644,"o":"m 95 34 l 95 142 q 349 102 220 102 q 519 203 519 102 q 400 298 519 298 l 298 298 q 68 509 68 298 q 364 712 68 712 q 617 678 492 712 l 617 570 q 364 610 492 610 q 186 509 186 610 q 298 414 186 414 l 400 414 q 644 203 644 414 q 349 0 644 0 q 95 34 220 0 z "},"t":{"ha":458,"x_min":102,"x_max":400,"o":"m 102 827 l 180 827 l 208 712 l 400 712 l 400 610 l 227 610 l 227 201 q 313 102 227 102 l 400 102 l 400 0 l 281 0 q 102 192 102 0 l 102 827 z "},"u":{"ha":817,"x_min":102,"x_max":715,"o":"m 715 712 l 715 0 l 629 0 l 608 91 q 347 0 478 0 q 102 265 102 0 l 102 712 l 227 712 l 227 263 q 385 104 227 104 q 590 195 492 104 l 590 712 l 715 712 z "},"v":{"ha":678,"x_min":0,"x_max":678,"o":"m 0 712 l 136 712 l 340 154 l 543 712 l 678 712 l 389 0 l 272 0 l 0 712 z "},"w":{"ha":1044,"x_min":24,"x_max":1020,"o":"m 24 712 l 151 712 l 277 154 l 462 712 l 575 712 l 773 154 l 887 712 l 1020 712 l 834 0 l 720 0 l 515 532 l 321 0 l 204 0 l 24 712 z "},"x":{"ha":712,"x_min":17,"x_max":695,"o":"m 283 356 l 17 712 l 163 712 l 356 454 l 549 712 l 695 712 l 429 356 l 695 0 l 549 0 l 356 258 l 163 0 l 17 0 l 283 356 z "},"y":{"ha":712,"x_min":17,"x_max":696,"o":"m 17 712 l 153 712 l 355 156 l 563 712 l 696 712 l 400 -21 q 164 -263 321 -215 l 116 -174 q 290 -4 235 -122 l 17 712 z "},"z":{"ha":705,"x_min":68,"x_max":637,"o":"m 81 712 l 637 712 l 637 610 l 212 95 l 624 95 l 624 0 l 68 0 l 68 95 l 498 610 l 81 610 l 81 712 z "},"{":{"ha":458,"x_min":68,"x_max":424,"o":"m 424 970 q 336 646 336 850 q 193 356 336 407 q 336 66 336 305 q 424 -258 336 -138 l 298 -258 q 210 66 210 -138 q 68 305 210 305 l 68 407 q 210 646 210 407 q 298 970 210 850 l 424 970 z "},"|":{"ha":329,"x_min":102,"x_max":227,"o":"m 227 970 l 227 -258 l 102 -258 l 102 970 l 227 970 z "},"}":{"ha":458,"x_min":34,"x_max":390,"o":"m 159 970 q 248 646 248 850 q 390 407 248 407 l 390 305 q 248 66 248 305 q 159 -258 248 -138 l 34 -258 q 122 66 122 -138 q 264 356 122 305 q 122 646 122 407 q 34 970 122 850 l 159 970 z "},"~":{"ha":644,"x_min":68,"x_max":576,"o":"m 68 393 q 178 435 107 435 q 315 407 236 435 q 456 380 395 380 q 576 420 530 380 l 576 319 q 467 278 537 278 q 329 305 408 278 q 189 333 250 333 q 68 292 115 333 l 68 393 z "},"Ä":{"ha":998,"x_min":17,"x_max":981,"o":"m 147 0 l 17 0 l 429 970 l 568 970 l 981 0 l 842 0 l 717 305 l 396 305 l 431 407 l 675 407 l 494 846 l 147 0 m 688 1227 l 688 1112 l 562 1112 l 562 1227 l 688 1227 m 437 1227 l 437 1112 l 311 1112 l 311 1227 l 437 1227 z "},"Å":{"ha":998,"x_min":17,"x_max":981,"o":"m 500 1010 q 591 1103 591 1010 q 500 1194 591 1194 q 407 1103 407 1194 q 500 1010 407 1010 m 147 0 l 17 0 l 429 970 l 431 970 q 346 1102 346 997 q 500 1244 346 1244 q 652 1102 652 1244 q 568 969 652 996 l 981 0 l 842 0 l 717 305 l 396 305 l 431 407 l 675 407 l 494 846 l 147 0 z "},"Ç":{"ha":939,"x_min":68,"x_max":848,"o":"m 478 -1 q 68 498 68 45 q 576 977 68 977 q 848 936 722 977 l 848 827 q 590 875 722 875 q 193 498 193 875 q 590 95 193 95 q 848 142 722 95 l 848 34 q 576 -7 722 -7 l 566 -7 l 541 -52 q 686 -169 686 -52 q 523 -286 686 -286 q 376 -252 450 -286 l 376 -179 q 523 -213 450 -213 q 596 -169 596 -213 q 540 -125 596 -125 l 416 -125 l 478 -1 z "},"É":{"ha":834,"x_min":115,"x_max":760,"o":"m 749 970 l 749 868 l 241 868 l 241 543 l 726 543 l 726 441 l 241 441 l 241 102 l 760 102 l 760 0 l 115 0 l 115 970 l 749 970 m 458 1227 l 620 1227 l 458 1065 l 347 1065 l 458 1227 z "},"Ñ":{"ha":1068,"x_min":115,"x_max":953,"o":"m 115 0 l 115 970 l 241 970 l 834 189 l 834 970 l 953 970 l 953 0 l 827 0 l 234 788 l 234 0 l 115 0 m 365 1196 q 453 1227 406 1227 q 528 1210 488 1227 q 605 1192 567 1192 q 704 1223 656 1192 l 704 1122 q 616 1090 663 1090 q 541 1108 581 1090 q 464 1126 502 1126 q 365 1095 413 1126 l 365 1196 z "},"Ö":{"ha":1129,"x_min":81,"x_max":1048,"o":"m 214 488 q 568 95 214 95 q 916 488 916 95 q 568 875 916 875 q 214 488 214 875 m 81 484 q 568 977 81 977 q 1048 484 1048 977 q 568 -7 1048 -7 q 81 484 81 -7 m 753 1227 l 753 1112 l 627 1112 l 627 1227 l 753 1227 m 502 1227 l 502 1112 l 376 1112 l 376 1227 l 502 1227 z "},"Ü":{"ha":1024,"x_min":109,"x_max":916,"o":"m 109 374 l 109 970 l 234 970 l 234 374 q 512 95 234 95 q 790 374 790 95 l 790 970 l 916 970 l 916 374 q 512 -7 916 -7 q 109 374 109 -7 m 701 1227 l 701 1112 l 575 1112 l 575 1227 l 701 1227 m 450 1227 l 450 1112 l 324 1112 l 324 1227 l 450 1227 z "},"á":{"ha":770,"x_min":68,"x_max":668,"o":"m 68 215 q 357 434 68 434 q 543 420 450 434 l 543 488 q 351 610 543 610 q 125 576 241 610 l 125 678 q 351 712 241 712 q 668 491 668 712 l 668 0 l 597 0 l 554 71 q 322 0 448 0 q 68 215 68 0 m 357 332 q 193 217 193 332 q 322 102 193 102 q 543 171 452 102 l 543 319 q 357 332 450 332 m 388 970 l 550 970 l 388 808 l 277 808 l 388 970 z "},"à":{"ha":770,"x_min":68,"x_max":668,"o":"m 68 215 q 357 434 68 434 q 543 420 450 434 l 543 488 q 351 610 543 610 q 125 576 241 610 l 125 678 q 351 712 241 712 q 668 491 668 712 l 668 0 l 597 0 l 554 71 q 322 0 448 0 q 68 215 68 0 m 357 332 q 193 217 193 332 q 322 102 193 102 q 543 171 452 102 l 543 319 q 357 332 450 332 m 473 808 l 361 808 l 199 970 l 361 970 l 473 808 z "},"â":{"ha":770,"x_min":68,"x_max":668,"o":"m 68 215 q 357 434 68 434 q 543 420 450 434 l 543 488 q 351 610 543 610 q 125 576 241 610 l 125 678 q 351 712 241 712 q 668 491 668 712 l 668 0 l 597 0 l 554 71 q 322 0 448 0 q 68 215 68 0 m 357 332 q 193 217 193 332 q 322 102 193 102 q 543 171 452 102 l 543 319 q 357 332 450 332 m 338 970 l 439 970 l 558 793 l 456 793 l 389 902 l 321 793 l 219 793 l 338 970 z "},"ä":{"ha":770,"x_min":68,"x_max":668,"o":"m 68 215 q 357 434 68 434 q 543 420 450 434 l 543 488 q 351 610 543 610 q 125 576 241 610 l 125 678 q 351 712 241 712 q 668 491 668 712 l 668 0 l 597 0 l 554 71 q 322 0 448 0 q 68 215 68 0 m 357 332 q 193 217 193 332 q 322 102 193 102 q 543 171 452 102 l 543 319 q 357 332 450 332 m 570 970 l 570 854 l 444 854 l 444 970 l 570 970 m 319 970 l 319 854 l 193 854 l 193 970 l 319 970 z "},"ã":{"ha":770,"x_min":68,"x_max":668,"o":"m 68 215 q 357 434 68 434 q 543 420 450 434 l 543 488 q 351 610 543 610 q 125 576 241 610 l 125 678 q 351 712 241 712 q 668 491 668 712 l 668 0 l 597 0 l 554 71 q 322 0 448 0 q 68 215 68 0 m 357 332 q 193 217 193 332 q 322 102 193 102 q 543 171 452 102 l 543 319 q 357 332 450 332 m 199 939 q 287 970 239 970 q 361 952 322 970 q 439 935 401 935 q 538 966 490 935 l 538 864 q 450 833 497 833 q 375 850 414 833 q 298 868 336 868 q 199 837 247 868 l 199 939 z "},"å":{"ha":770,"x_min":68,"x_max":668,"o":"m 68 215 q 357 434 68 434 q 543 420 450 434 l 543 488 q 351 610 543 610 q 125 576 241 610 l 125 678 q 351 712 241 712 q 668 491 668 712 l 668 0 l 597 0 l 554 71 q 322 0 448 0 q 68 215 68 0 m 357 332 q 193 217 193 332 q 322 102 193 102 q 543 171 452 102 l 543 319 q 357 332 450 332 m 290 924 q 383 831 290 831 q 474 924 474 831 q 383 1015 474 1015 q 290 924 290 1015 m 229 923 q 383 1065 229 1065 q 535 923 535 1065 q 383 781 535 781 q 229 923 229 781 z "},"ç":{"ha":695,"x_min":68,"x_max":644,"o":"m 359 6 q 68 370 68 49 q 454 712 68 712 q 644 692 556 712 l 644 590 q 468 610 556 610 q 193 370 193 610 q 468 102 193 102 q 644 122 556 102 l 644 20 q 454 0 556 0 l 446 0 l 418 -52 q 564 -169 564 -52 q 400 -286 564 -286 q 254 -252 327 -286 l 254 -179 q 400 -213 327 -213 q 473 -169 473 -213 q 417 -125 473 -125 l 293 -125 l 359 6 z "},"é":{"ha":766,"x_min":68,"x_max":699,"o":"m 395 712 q 699 412 699 712 q 693 320 699 369 l 193 320 q 448 102 193 102 q 664 129 570 102 l 664 27 q 435 0 570 0 q 68 364 68 0 q 395 712 68 712 m 193 425 l 578 425 q 395 612 574 612 q 193 425 205 612 m 404 970 l 566 970 l 404 808 l 292 808 l 404 970 z "},"è":{"ha":766,"x_min":68,"x_max":699,"o":"m 395 712 q 699 412 699 712 q 693 320 699 369 l 193 320 q 448 102 193 102 q 664 129 570 102 l 664 27 q 435 0 570 0 q 68 364 68 0 q 395 712 68 712 m 193 425 l 578 425 q 395 612 574 612 q 193 425 205 612 m 475 808 l 363 808 l 201 970 l 363 970 l 475 808 z "},"ê":{"ha":766,"x_min":68,"x_max":699,"o":"m 395 712 q 699 412 699 712 q 693 320 699 369 l 193 320 q 448 102 193 102 q 664 129 570 102 l 664 27 q 435 0 570 0 q 68 364 68 0 q 395 712 68 712 m 193 425 l 578 425 q 395 612 574 612 q 193 425 205 612 m 339 970 l 441 970 l 559 793 l 458 793 l 390 902 l 322 793 l 220 793 l 339 970 z "},"ë":{"ha":766,"x_min":68,"x_max":699,"o":"m 395 712 q 699 412 699 712 q 693 320 699 369 l 193 320 q 448 102 193 102 q 664 129 570 102 l 664 27 q 435 0 570 0 q 68 364 68 0 q 395 712 68 712 m 193 425 l 578 425 q 395 612 574 612 q 193 425 205 612 m 578 970 l 578 854 l 453 854 l 453 970 l 578 970 m 328 970 l 328 854 l 202 854 l 202 970 l 328 970 z "},"í":{"ha":356,"x_min":87,"x_max":360,"o":"m 241 712 l 241 0 l 115 0 l 115 712 l 241 712 m 198 970 l 360 970 l 198 808 l 87 808 l 198 970 z "},"ì":{"ha":356,"x_min":-4,"x_max":269,"o":"m 241 712 l 241 0 l 115 0 l 115 712 l 241 712 m 269 808 l 158 808 l -4 970 l 158 970 l 269 808 z "},"î":{"ha":356,"x_min":9,"x_max":348,"o":"m 241 712 l 241 0 l 116 0 l 116 712 l 241 712 m 127 970 l 229 970 l 348 793 l 246 793 l 178 902 l 111 793 l 9 793 l 127 970 z "},"ï":{"ha":356,"x_min":-10,"x_max":366,"o":"m 241 712 l 241 0 l 115 0 l 115 712 l 241 712 m 366 970 l 366 854 l 241 854 l 241 970 l 366 970 m 115 970 l 115 854 l -10 854 l -10 970 l 115 970 z "},"ñ":{"ha":817,"x_min":102,"x_max":715,"o":"m 102 0 l 102 712 l 186 712 l 209 621 q 449 712 318 712 q 715 447 715 712 l 715 0 l 590 0 l 590 449 q 432 608 590 608 q 227 517 324 608 l 227 0 l 102 0 m 239 939 q 328 970 280 970 q 402 952 363 970 q 479 935 441 935 q 578 966 530 935 l 578 864 q 490 833 538 833 q 416 850 455 833 q 338 868 376 868 q 239 837 288 868 l 239 939 z "},"ó":{"ha":814,"x_min":68,"x_max":746,"o":"m 193 359 q 407 102 193 102 q 621 359 621 102 q 407 610 621 610 q 193 359 193 610 m 68 356 q 407 712 68 712 q 746 356 746 712 q 407 1 746 1 q 68 356 69 1 m 427 970 l 589 970 l 427 808 l 316 808 l 427 970 z "},"ò":{"ha":814,"x_min":68,"x_max":746,"o":"m 193 359 q 407 102 193 102 q 621 359 621 102 q 407 610 621 610 q 193 359 193 610 m 68 356 q 407 712 68 712 q 746 356 746 712 q 407 1 746 1 q 68 356 69 1 m 498 808 l 387 808 l 224 970 l 387 970 l 498 808 z "},"ô":{"ha":814,"x_min":68,"x_max":746,"o":"m 193 359 q 407 102 193 102 q 621 359 621 102 q 407 610 621 610 q 193 359 193 610 m 68 356 q 407 712 68 712 q 746 356 746 712 q 407 1 746 1 q 68 356 69 1 m 356 970 l 458 970 l 576 793 l 475 793 l 407 902 l 339 793 l 237 793 l 356 970 z "},"ö":{"ha":814,"x_min":68,"x_max":746,"o":"m 193 359 q 407 102 193 102 q 621 359 621 102 q 407 610 621 610 q 193 359 193 610 m 68 356 q 407 712 68 712 q 746 356 746 712 q 407 1 746 1 q 68 356 69 1 m 595 970 l 595 854 l 470 854 l 470 970 l 595 970 m 345 970 l 345 854 l 219 854 l 219 970 l 345 970 z "},"õ":{"ha":814,"x_min":68,"x_max":746,"o":"m 193 359 q 407 102 193 102 q 621 359 621 102 q 407 610 621 610 q 193 359 193 610 m 68 356 q 407 712 68 712 q 746 356 746 712 q 407 1 746 1 q 68 356 69 1 m 237 939 q 326 970 278 970 q 400 952 361 970 q 477 935 439 935 q 576 966 528 935 l 576 864 q 488 833 536 833 q 414 850 453 833 q 336 868 374 868 q 237 837 286 868 l 237 939 z "},"ú":{"ha":817,"x_min":102,"x_max":715,"o":"m 715 712 l 715 0 l 629 0 l 608 91 q 347 0 478 0 q 102 265 102 0 l 102 712 l 227 712 l 227 263 q 385 104 227 104 q 590 195 492 104 l 590 712 l 715 712 m 429 970 l 591 970 l 429 808 l 317 808 l 429 970 z "},"ù":{"ha":817,"x_min":102,"x_max":715,"o":"m 715 712 l 715 0 l 629 0 l 608 91 q 347 0 478 0 q 102 265 102 0 l 102 712 l 227 712 l 227 263 q 385 104 227 104 q 590 195 492 104 l 590 712 l 715 712 m 500 808 l 389 808 l 227 970 l 389 970 l 500 808 z "},"û":{"ha":817,"x_min":102,"x_max":715,"o":"m 715 712 l 715 0 l 629 0 l 608 91 q 347 0 478 0 q 102 265 102 0 l 102 712 l 227 712 l 227 263 q 385 104 227 104 q 590 195 492 104 l 590 712 l 715 712 m 358 970 l 460 970 l 578 793 l 477 793 l 409 902 l 341 793 l 239 793 l 358 970 z "},"ü":{"ha":817,"x_min":102,"x_max":715,"o":"m 715 712 l 715 0 l 629 0 l 608 91 q 347 0 478 0 q 102 265 102 0 l 102 712 l 227 712 l 227 263 q 385 104 227 104 q 590 195 492 104 l 590 712 l 715 712 m 597 970 l 597 854 l 471 854 l 471 970 l 597 970 m 346 970 l 346 854 l 220 854 l 220 970 l 346 970 z "},"†":{"ha":709,"x_min":34,"x_max":675,"o":"m 417 970 l 417 712 l 675 712 l 675 610 l 417 610 l 417 -258 l 292 -258 l 292 610 l 34 610 l 34 712 l 292 712 l 292 970 l 417 970 z "},"°":{"ha":510,"x_min":68,"x_max":442,"o":"m 156 795 q 256 695 156 695 q 354 795 354 695 q 256 892 354 892 q 156 795 156 892 m 68 793 q 256 970 68 970 q 442 793 442 970 q 256 618 442 618 q 68 793 68 618 z "},"¢":{"ha":712,"x_min":68,"x_max":644,"o":"m 387 838 l 387 970 l 505 970 l 505 840 q 644 821 578 836 l 644 719 q 468 739 556 739 q 193 498 193 739 q 468 231 193 231 q 644 251 556 231 l 644 149 q 505 130 578 134 l 505 0 l 387 0 l 387 132 q 68 498 68 163 q 387 838 68 810 z "},"£":{"ha":825,"x_min":68,"x_max":758,"o":"m 68 83 q 194 280 194 134 q 142 477 194 359 q 90 696 90 595 q 468 977 90 977 q 758 909 651 977 l 758 787 q 463 875 650 875 q 223 698 223 875 q 254 543 223 600 l 509 543 l 509 441 l 289 441 q 322 282 322 350 q 279 121 322 189 q 313 123 294 123 q 484 94 375 123 q 566 83 525 83 q 758 149 664 83 l 758 34 q 565 -23 676 -23 q 429 -4 501 -23 q 262 18 341 18 q 68 -20 158 18 l 68 83 z "},"§":{"ha":712,"x_min":68,"x_max":644,"o":"m 102 27 l 102 136 q 349 95 220 95 q 519 197 519 95 q 387 285 519 285 l 312 285 q 68 488 68 285 q 151 621 68 582 q 68 773 68 675 q 378 977 68 977 q 610 943 492 977 l 610 834 q 378 875 492 875 q 180 773 180 875 q 312 685 180 685 l 387 685 q 644 484 644 685 q 563 347 644 395 q 644 197 644 303 q 349 -7 644 -7 q 102 27 220 -7 m 186 486 q 319 385 186 385 l 393 385 q 526 477 526 385 q 393 584 526 584 l 319 584 q 186 486 186 584 z "},"•":{"ha":427,"x_min":68,"x_max":359,"o":"m 68 492 q 214 637 68 637 q 359 492 359 637 q 214 346 359 346 q 68 492 68 346 z "},"¶":{"ha":646,"x_min":0,"x_max":646,"o":"m 300 -294 l 300 365 q 0 669 0 365 q 300 970 0 970 l 646 970 l 646 909 l 545 909 l 545 -294 l 477 -294 l 477 909 l 368 909 l 368 -294 l 300 -294 z "},"ß":{"ha":808,"x_min":102,"x_max":753,"o":"m 102 0 l 102 650 q 416 968 102 968 q 708 712 708 968 l 708 654 q 502 493 502 585 q 628 383 502 431 q 753 205 753 334 q 486 0 753 0 l 363 0 l 363 102 l 488 102 q 621 205 621 102 q 502 315 621 273 q 383 491 383 357 q 578 712 383 632 q 412 866 578 866 q 227 648 227 866 l 227 0 l 102 0 z "},"®":{"ha":789,"x_min":102,"x_max":687,"o":"m 274 513 l 274 876 l 429 876 q 533 789 533 876 q 431 684 533 718 l 556 513 l 494 513 l 378 676 l 378 707 q 483 787 483 724 q 425 838 483 838 l 321 838 l 321 513 l 274 513 m 151 695 q 393 450 151 450 q 637 695 637 450 q 393 945 637 945 q 151 695 151 945 m 102 694 q 393 983 102 983 q 687 694 687 983 q 393 412 687 412 q 102 694 110 412 z "},"©":{"ha":1211,"x_min":102,"x_max":1109,"o":"m 173 488 q 595 54 173 54 q 1038 488 1038 54 q 609 916 1038 916 q 173 488 173 916 m 102 490 q 609 977 102 977 q 1109 490 1109 977 q 609 -7 1109 -7 q 102 490 102 -7 m 802 228 q 606 193 718 193 q 323 494 323 193 q 606 776 323 776 q 802 741 718 776 l 802 675 q 615 714 718 714 q 395 494 395 714 q 615 255 395 255 q 802 294 718 255 l 802 228 z "},"™":{"ha":1089,"x_min":102,"x_max":987,"o":"m 448 970 l 448 922 l 304 922 l 304 513 l 245 513 l 245 922 l 102 922 l 102 970 l 448 970 m 509 513 l 509 970 l 583 970 l 751 589 l 916 970 l 987 970 l 987 513 l 935 513 l 935 882 l 772 513 l 726 513 l 561 882 l 561 513 l 509 513 z "},"´":{"ha":409,"x_min":68,"x_max":341,"o":"m 179 970 l 341 970 l 179 808 l 68 808 l 179 970 z "},"¨":{"ha":512,"x_min":68,"x_max":444,"o":"m 444 970 l 444 854 l 319 854 l 319 970 l 444 970 m 193 970 l 193 854 l 68 854 l 68 970 l 193 970 z "},"Æ":{"ha":1305,"x_min":17,"x_max":1221,"o":"m 551 407 l 590 305 l 279 305 l 147 0 l 17 0 l 429 970 l 1207 970 l 1207 868 l 605 868 l 747 543 l 1183 543 l 1183 441 l 794 441 l 947 102 l 1221 102 l 1221 0 l 849 0 l 494 840 l 313 407 l 551 407 z "},"Ø":{"ha":1102,"x_min":68,"x_max":1034,"o":"m 745 833 q 555 875 669 875 q 200 488 200 875 q 274 211 200 309 l 745 833 m 354 140 q 555 95 434 95 q 902 488 902 95 q 827 764 902 668 l 354 140 m 903 865 q 1034 484 1034 741 q 555 -7 1034 -7 q 284 48 392 -7 l 248 0 l 114 0 l 197 109 q 68 484 68 231 q 555 977 68 977 q 814 925 709 977 l 848 970 l 983 970 l 903 865 z "},"±":{"ha":644,"x_min":68,"x_max":576,"o":"m 271 509 l 271 712 l 373 712 l 373 509 l 576 509 l 576 407 l 373 407 l 373 203 l 271 203 l 271 407 l 68 407 l 68 509 l 271 509 m 576 102 l 576 0 l 68 0 l 68 102 l 576 102 z "},"¥":{"ha":848,"x_min":34,"x_max":814,"o":"m 34 970 l 173 970 l 418 545 l 668 970 l 814 970 l 520 495 l 732 495 l 732 393 l 477 393 l 477 318 l 732 318 l 732 216 l 477 216 l 477 0 l 352 0 l 352 216 l 115 216 l 115 318 l 352 318 l 352 393 l 115 393 l 115 495 l 310 495 l 34 970 z "},"µ":{"ha":817,"x_min":102,"x_max":715,"o":"m 715 712 l 715 0 l 629 0 l 608 91 q 361 0 478 0 q 227 54 273 0 l 227 -258 l 102 -258 l 102 712 l 227 712 l 227 297 q 385 104 227 104 q 590 195 492 104 l 590 712 l 715 712 z "},"ª":{"ha":435,"x_min":68,"x_max":368,"o":"m 68 725 q 212 834 68 834 q 305 827 266 834 l 305 861 q 209 920 305 920 q 96 902 155 920 l 96 954 q 209 970 155 970 q 368 856 368 970 l 368 614 l 336 614 l 311 639 q 202 614 264 614 q 68 725 68 614 m 305 777 q 212 784 268 784 q 130 726 130 784 q 202 665 130 665 q 305 693 267 665 l 305 777 z "},"º":{"ha":475,"x_min":68,"x_max":407,"o":"m 131 793 q 237 665 131 665 q 345 793 345 665 q 237 920 345 920 q 131 793 131 920 m 68 792 q 237 970 68 970 q 407 792 407 970 q 237 614 407 614 q 68 792 69 614 z "},"æ":{"ha":1243,"x_min":68,"x_max":1176,"o":"m 357 332 q 193 217 193 332 q 322 102 193 102 q 543 171 452 102 l 543 319 q 357 332 450 332 m 670 425 l 1055 425 q 872 612 1051 612 q 670 425 682 612 m 626 100 q 322 0 475 0 q 68 215 68 0 q 357 434 68 434 q 543 420 450 434 l 543 488 q 351 610 543 610 q 125 576 241 610 l 125 678 q 351 712 241 712 q 625 624 551 712 q 872 712 707 712 q 1176 412 1176 712 q 1170 320 1176 369 l 670 320 q 925 102 670 102 q 1141 129 1040 102 l 1141 27 q 911 0 1046 0 q 626 100 722 0 z "},"ø":{"ha":814,"x_min":68,"x_max":755,"o":"m 523 584 q 407 610 476 610 q 193 359 193 610 q 227 195 193 257 l 523 584 m 304 121 q 407 102 347 102 q 621 359 621 102 q 595 503 621 446 l 304 121 m 675 608 q 746 356 746 519 q 407 1 746 1 q 236 32 307 1 l 212 0 l 78 0 l 149 94 q 68 356 68 182 q 407 712 68 712 q 592 674 517 712 l 621 712 l 755 712 l 675 608 z "},"¿":{"ha":756,"x_min":68,"x_max":688,"o":"m 461 587 l 461 712 l 587 712 l 587 587 l 461 587 m 688 -224 q 417 -258 546 -258 q 68 7 68 -258 q 405 271 68 271 l 461 271 l 461 461 l 587 461 l 587 170 l 407 170 q 193 7 193 170 q 417 -156 193 -156 q 688 -122 546 -156 l 688 -224 z "},"¡":{"ha":329,"x_min":102,"x_max":227,"o":"m 102 -258 l 102 461 l 227 461 l 227 -258 l 102 -258 m 102 587 l 102 712 l 227 712 l 227 587 l 102 587 z "},"¬":{"ha":736,"x_min":68,"x_max":668,"o":"m 68 712 l 668 712 l 668 441 l 566 441 l 566 610 l 68 610 l 68 712 z "},"ƒ":{"ha":710,"x_min":34,"x_max":676,"o":"m 676 868 q 637 872 655 872 q 492 726 521 872 l 475 644 l 618 644 l 597 543 l 455 543 l 344 -14 q 79 -260 294 -260 q 34 -258 57 -260 l 34 -156 q 73 -160 55 -160 q 218 -14 189 -160 l 330 543 l 201 543 l 221 644 l 350 644 l 366 726 q 631 972 416 972 q 676 970 653 972 l 676 868 z "},"«":{"ha":684,"x_min":68,"x_max":650,"o":"m 338 356 l 513 610 l 650 610 l 475 356 l 650 102 l 513 102 l 338 356 m 68 356 l 243 610 l 380 610 l 205 356 l 380 102 l 243 102 l 68 356 z "},"»":{"ha":684,"x_min":34,"x_max":616,"o":"m 171 102 l 34 102 l 209 356 l 34 610 l 171 610 l 346 356 l 171 102 m 441 102 l 304 102 l 479 356 l 304 610 l 441 610 l 616 356 l 441 102 z "},"…":{"ha":804,"x_min":68,"x_max":736,"o":"m 193 125 l 193 0 l 68 0 l 68 125 l 193 125 m 465 125 l 465 0 l 339 0 l 339 125 l 465 125 m 736 125 l 736 0 l 610 0 l 610 125 l 736 125 z "}," ":{"ha":338,"x_min":0,"x_max":0,"o":""},"À":{"ha":998,"x_min":17,"x_max":981,"o":"m 147 0 l 17 0 l 429 970 l 568 970 l 981 0 l 842 0 l 717 305 l 396 305 l 431 407 l 675 407 l 494 846 l 147 0 m 590 1065 l 479 1065 l 317 1227 l 479 1227 l 590 1065 z "},"Ã":{"ha":998,"x_min":17,"x_max":981,"o":"m 147 0 l 17 0 l 429 970 l 568 970 l 981 0 l 842 0 l 717 305 l 396 305 l 431 407 l 675 407 l 494 846 l 147 0 m 330 1196 q 418 1227 370 1227 q 492 1210 453 1227 q 570 1192 532 1192 q 669 1223 621 1192 l 669 1122 q 581 1090 628 1090 q 506 1108 545 1090 q 429 1126 467 1126 q 330 1095 378 1126 l 330 1196 z "},"Õ":{"ha":1129,"x_min":81,"x_max":1048,"o":"m 214 488 q 568 95 214 95 q 916 488 916 95 q 568 875 916 875 q 214 488 214 875 m 81 484 q 568 977 81 977 q 1048 484 1048 977 q 568 -7 1048 -7 q 81 484 81 -7 m 395 1196 q 484 1227 436 1227 q 558 1210 519 1227 q 635 1192 597 1192 q 734 1223 686 1192 l 734 1122 q 646 1090 694 1090 q 572 1108 611 1090 q 494 1126 532 1126 q 395 1095 444 1126 l 395 1196 z "},"Œ":{"ha":1502,"x_min":68,"x_max":1417,"o":"m 200 488 q 555 102 200 102 q 902 488 902 102 q 555 868 902 868 q 200 488 200 868 m 68 484 q 555 970 68 970 l 1407 970 l 1407 868 l 882 868 q 1034 543 1014 768 l 1383 543 l 1383 441 l 1034 441 q 882 102 1014 199 l 1417 102 l 1417 0 l 555 0 q 68 484 68 0 z "},"œ":{"ha":1322,"x_min":68,"x_max":1255,"o":"m 407 102 q 621 359 621 102 q 407 610 621 610 q 193 359 193 610 q 407 102 193 102 m 749 425 l 1134 425 q 951 612 1130 612 q 749 425 761 612 m 687 142 q 407 1 605 1 q 68 356 69 1 q 407 712 68 712 q 683 577 600 712 q 951 712 763 712 q 1255 412 1255 712 q 1249 320 1255 369 l 749 320 q 1004 102 749 102 q 1219 129 1125 102 l 1219 27 q 990 0 1125 0 q 687 142 775 0 z "},"–":{"ha":814,"x_min":68,"x_max":746,"o":"m 746 407 l 746 305 l 68 305 l 68 407 l 746 407 z "},"—":{"ha":1153,"x_min":68,"x_max":1085,"o":"m 1085 407 l 1085 305 l 68 305 l 68 407 l 1085 407 z "},"“":{"ha":529,"x_min":34,"x_max":512,"o":"m 512 970 l 410 675 l 285 675 l 387 970 l 512 970 m 261 970 l 159 675 l 34 675 l 136 970 l 261 970 z "},"”":{"ha":529,"x_min":34,"x_max":512,"o":"m 512 970 l 410 675 l 285 675 l 387 970 l 512 970 m 261 970 l 159 675 l 34 675 l 136 970 l 261 970 z "},"‘":{"ha":278,"x_min":34,"x_max":261,"o":"m 261 970 l 159 675 l 34 675 l 136 970 l 261 970 z "},"’":{"ha":295,"x_min":34,"x_max":261,"o":"m 261 970 l 159 675 l 34 675 l 136 970 l 261 970 z "},"÷":{"ha":668,"x_min":68,"x_max":600,"o":"m 600 407 l 600 305 l 68 305 l 68 407 l 600 407 m 397 203 l 397 102 l 271 102 l 271 203 l 397 203 m 397 610 l 397 509 l 271 509 l 271 610 l 397 610 z "},"ÿ":{"ha":712,"x_min":17,"x_max":696,"o":"m 17 712 l 153 712 l 355 156 l 563 712 l 696 712 l 400 -21 q 164 -263 321 -215 l 116 -174 q 290 -4 235 -122 l 17 712 m 545 970 l 545 854 l 419 854 l 419 970 l 545 970 m 294 970 l 294 854 l 168 854 l 168 970 l 294 970 z "},"Ÿ":{"ha":882,"x_min":17,"x_max":865,"o":"m 17 970 l 156 970 l 435 463 l 719 970 l 865 970 l 494 339 l 494 0 l 369 0 l 369 339 l 17 970 m 629 1227 l 629 1112 l 504 1112 l 504 1227 l 629 1227 m 378 1227 l 378 1112 l 253 1112 l 253 1227 l 378 1227 z "},"¤":{"ha":772,"x_min":68,"x_max":705,"o":"m 146 513 l 68 594 l 142 670 l 227 588 q 391 634 300 634 q 543 588 475 634 l 630 670 l 705 594 l 625 513 q 664 356 664 456 q 618 199 664 262 l 705 117 l 630 41 l 543 125 q 385 84 470 84 q 220 125 301 84 l 142 41 l 68 117 l 146 199 q 108 356 108 269 q 146 513 108 449 m 218 359 q 385 192 218 192 q 551 359 551 192 q 385 524 551 524 q 218 359 218 524 z "},"‹":{"ha":414,"x_min":68,"x_max":380,"o":"m 68 356 l 243 610 l 380 610 l 205 356 l 380 102 l 243 102 l 68 356 z "},"›":{"ha":414,"x_min":34,"x_max":346,"o":"m 171 102 l 34 102 l 209 356 l 34 610 l 171 610 l 346 356 l 171 102 z "},"‡":{"ha":709,"x_min":34,"x_max":675,"o":"m 417 970 l 417 712 l 675 712 l 675 610 l 417 610 l 417 102 l 675 102 l 675 0 l 417 0 l 417 -258 l 292 -258 l 292 0 l 34 0 l 34 102 l 292 102 l 292 610 l 34 610 l 34 712 l 292 712 l 292 970 l 417 970 z "},"·":{"ha":305,"x_min":68,"x_max":237,"o":"m 68 356 q 153 441 68 441 q 237 356 237 441 q 153 271 237 271 q 68 356 68 271 z "},"‚":{"ha":278,"x_min":17,"x_max":244,"o":"m 244 125 l 142 -170 l 17 -170 l 119 125 l 244 125 z "},"„":{"ha":529,"x_min":17,"x_max":495,"o":"m 495 125 l 393 -170 l 268 -170 l 370 125 l 495 125 m 244 125 l 142 -170 l 17 -170 l 119 125 l 244 125 z "},"‰":{"ha":1429,"x_min":68,"x_max":1361,"o":"m 207 0 l 68 0 l 758 970 l 897 970 l 207 0 m 156 802 q 256 702 156 702 q 354 802 354 702 q 256 899 354 899 q 156 802 156 899 m 68 800 q 256 977 68 977 q 442 800 442 977 q 256 625 442 625 q 68 800 68 625 m 1075 170 q 1175 71 1075 71 q 1273 170 1273 71 q 1175 268 1273 268 q 1075 170 1075 268 m 987 169 q 1175 345 987 345 q 1361 169 1361 345 q 1175 -7 1361 -7 q 987 169 987 -7 m 610 170 q 711 71 610 71 q 808 170 808 71 q 711 268 808 268 q 610 170 610 268 m 522 169 q 711 345 522 345 q 897 169 897 345 q 711 -7 897 -7 q 522 169 522 -7 z "},"Â":{"ha":998,"x_min":17,"x_max":981,"o":"m 147 0 l 17 0 l 429 970 l 568 970 l 981 0 l 842 0 l 717 305 l 396 305 l 431 407 l 675 407 l 494 846 l 147 0 m 448 1227 l 550 1227 l 669 1051 l 567 1051 l 499 1160 l 431 1051 l 330 1051 l 448 1227 z "},"Ê":{"ha":834,"x_min":115,"x_max":760,"o":"m 749 970 l 749 868 l 241 868 l 241 543 l 726 543 l 726 441 l 241 441 l 241 102 l 760 102 l 760 0 l 115 0 l 115 970 l 749 970 m 387 1227 l 488 1227 l 607 1051 l 505 1051 l 437 1160 l 370 1051 l 268 1051 l 387 1227 z "},"Á":{"ha":998,"x_min":17,"x_max":981,"o":"m 147 0 l 17 0 l 429 970 l 568 970 l 981 0 l 842 0 l 717 305 l 396 305 l 431 407 l 675 407 l 494 846 l 147 0 m 519 1227 l 682 1227 l 519 1065 l 408 1065 l 519 1227 z "},"Ë":{"ha":834,"x_min":115,"x_max":760,"o":"m 749 970 l 749 868 l 241 868 l 241 543 l 726 543 l 726 441 l 241 441 l 241 102 l 760 102 l 760 0 l 115 0 l 115 970 l 749 970 m 626 1227 l 626 1112 l 500 1112 l 500 1227 l 626 1227 m 375 1227 l 375 1112 l 250 1112 l 250 1227 l 375 1227 z "},"È":{"ha":834,"x_min":115,"x_max":760,"o":"m 749 970 l 749 868 l 241 868 l 241 543 l 726 543 l 726 441 l 241 441 l 241 102 l 760 102 l 760 0 l 115 0 l 115 970 l 749 970 m 528 1065 l 417 1065 l 255 1227 l 417 1227 l 528 1065 z "},"Í":{"ha":397,"x_min":107,"x_max":380,"o":"m 261 970 l 261 0 l 136 0 l 136 970 l 261 970 m 218 1227 l 380 1227 l 218 1065 l 107 1065 l 218 1227 z "},"Î":{"ha":397,"x_min":29,"x_max":368,"o":"m 262 970 l 262 0 l 136 0 l 136 970 l 262 970 m 148 1227 l 250 1227 l 368 1051 l 267 1051 l 199 1160 l 131 1051 l 29 1051 l 148 1227 z "},"Ï":{"ha":397,"x_min":10,"x_max":387,"o":"m 261 970 l 261 0 l 136 0 l 136 970 l 261 970 m 387 1227 l 387 1112 l 261 1112 l 261 1227 l 387 1227 m 136 1227 l 136 1112 l 10 1112 l 10 1227 l 136 1227 z "},"Ì":{"ha":397,"x_min":16,"x_max":290,"o":"m 261 970 l 261 0 l 136 0 l 136 970 l 261 970 m 290 1065 l 178 1065 l 16 1227 l 178 1227 l 290 1065 z "},"Ó":{"ha":1129,"x_min":81,"x_max":1048,"o":"m 214 488 q 568 95 214 95 q 916 488 916 95 q 568 875 916 875 q 214 488 214 875 m 81 484 q 568 977 81 977 q 1048 484 1048 977 q 568 -7 1048 -7 q 81 484 81 -7 m 585 1227 l 747 1227 l 585 1065 l 473 1065 l 585 1227 z "},"Ô":{"ha":1129,"x_min":81,"x_max":1048,"o":"m 214 488 q 568 95 214 95 q 916 488 916 95 q 568 875 916 875 q 214 488 214 875 m 81 484 q 568 977 81 977 q 1048 484 1048 977 q 568 -7 1048 -7 q 81 484 81 -7 m 514 1227 l 616 1227 l 734 1051 l 633 1051 l 565 1160 l 497 1051 l 395 1051 l 514 1227 z "},"Ò":{"ha":1129,"x_min":81,"x_max":1048,"o":"m 214 488 q 568 95 214 95 q 916 488 916 95 q 568 875 916 875 q 214 488 214 875 m 81 484 q 568 977 81 977 q 1048 484 1048 977 q 568 -7 1048 -7 q 81 484 81 -7 m 656 1065 l 545 1065 l 382 1227 l 545 1227 l 656 1065 z "},"Ú":{"ha":1024,"x_min":109,"x_max":916,"o":"m 109 374 l 109 970 l 234 970 l 234 374 q 512 95 234 95 q 790 374 790 95 l 790 970 l 916 970 l 916 374 q 512 -7 916 -7 q 109 374 109 -7 m 532 1227 l 694 1227 l 532 1065 l 421 1065 l 532 1227 z "},"Û":{"ha":1024,"x_min":109,"x_max":916,"o":"m 109 374 l 109 970 l 234 970 l 234 374 q 512 95 234 95 q 790 374 790 95 l 790 970 l 916 970 l 916 374 q 512 -7 916 -7 q 109 374 109 -7 m 461 1227 l 563 1227 l 682 1051 l 580 1051 l 512 1160 l 444 1051 l 342 1051 l 461 1227 z "},"Ù":{"ha":1024,"x_min":109,"x_max":916,"o":"m 109 374 l 109 970 l 234 970 l 234 374 q 512 95 234 95 q 790 374 790 95 l 790 970 l 916 970 l 916 374 q 512 -7 916 -7 q 109 374 109 -7 m 603 1065 l 492 1065 l 330 1227 l 492 1227 l 603 1065 z "},"ˆ":{"ha":475,"x_min":68,"x_max":407,"o":"m 186 970 l 288 970 l 407 793 l 305 793 l 237 902 l 170 793 l 68 793 l 186 970 z "},"˜":{"ha":475,"x_min":68,"x_max":407,"o":"m 68 939 q 156 970 109 970 q 231 952 191 970 q 308 935 270 935 q 407 966 359 935 l 407 864 q 319 833 366 833 q 244 850 283 833 q 167 868 205 868 q 68 837 116 868 l 68 939 z "},"¯":{"ha":475,"x_min":68,"x_max":407,"o":"m 407 970 l 407 868 l 68 868 l 68 970 l 407 970 z "},"¸":{"ha":310,"x_min":0,"x_max":310,"o":"m 0 -179 q 146 -213 73 -213 q 220 -169 220 -213 q 163 -125 220 -125 l 39 -125 l 128 51 l 220 51 l 165 -52 q 310 -169 310 -52 q 146 -286 310 -286 q 0 -252 73 -286 l 0 -179 z "},"̦":{"ha":261,"x_min":17,"x_max":244,"o":"m 244 -68 l 142 -258 l 17 -258 l 119 -68 l 244 -68 z "},"Š":{"ha":875,"x_min":68,"x_max":807,"o":"m 102 34 l 102 149 q 431 95 254 95 q 682 278 682 95 q 497 434 682 434 l 372 434 q 68 699 68 434 q 458 977 68 977 q 773 936 627 977 l 773 821 q 458 875 627 875 q 193 699 193 875 q 372 543 193 543 l 497 543 q 807 278 807 543 q 431 -7 807 -7 q 102 34 254 -7 m 268 1227 l 370 1227 l 437 1119 l 505 1227 l 607 1227 l 488 1051 l 387 1051 l 268 1227 z "},"š":{"ha":712,"x_min":68,"x_max":644,"o":"m 95 34 l 95 142 q 349 102 220 102 q 519 203 519 102 q 400 298 519 298 l 298 298 q 68 509 68 298 q 364 712 68 712 q 617 678 492 712 l 617 570 q 364 610 492 610 q 186 509 186 610 q 298 414 186 414 l 400 414 q 644 203 644 414 q 349 0 644 0 q 95 34 220 0 m 186 970 l 288 970 l 356 861 l 424 970 l 526 970 l 407 793 l 305 793 l 186 970 z "},"¦":{"ha":329,"x_min":102,"x_max":227,"o":"m 227 237 l 227 -258 l 102 -258 l 102 237 l 227 237 m 227 970 l 227 475 l 102 475 l 102 970 l 227 970 z "},"Ð":{"ha":1017,"x_min":-20,"x_max":949,"o":"m 115 543 l 115 970 l 468 970 q 949 511 949 970 q 468 0 949 0 l 115 0 l 115 441 l -20 441 l -20 543 l 115 543 m 241 543 l 488 543 l 488 441 l 241 441 l 241 102 l 468 102 q 824 511 824 102 q 468 868 824 868 l 241 868 l 241 543 z "},"ð":{"ha":807,"x_min":68,"x_max":739,"o":"m 614 391 q 602 556 614 476 q 402 617 547 617 q 191 366 191 617 q 403 95 191 95 q 614 391 614 95 m 600 848 q 739 393 739 705 q 402 -7 739 -7 q 68 366 68 -7 q 382 712 68 712 q 583 651 503 712 q 484 800 550 747 l 292 720 l 292 800 l 401 846 q 262 868 340 868 l 122 868 l 122 970 l 263 970 q 534 902 427 970 l 696 970 l 696 889 l 600 848 z "},"Ý":{"ha":882,"x_min":17,"x_max":865,"o":"m 17 970 l 156 970 l 435 463 l 719 970 l 865 970 l 494 339 l 494 0 l 369 0 l 369 339 l 17 970 m 461 1227 l 623 1227 l 461 1065 l 350 1065 l 461 1227 z "},"ý":{"ha":712,"x_min":17,"x_max":696,"o":"m 17 712 l 153 712 l 355 156 l 563 712 l 696 712 l 400 -21 q 164 -263 321 -215 l 116 -174 q 290 -4 235 -122 l 17 712 m 376 970 l 538 970 l 376 808 l 265 808 l 376 970 z "},"Þ":{"ha":843,"x_min":102,"x_max":792,"o":"m 102 0 l 102 970 l 227 970 l 227 761 l 515 761 q 792 528 792 761 q 406 203 792 266 l 380 309 q 659 523 659 353 q 504 657 659 657 l 227 657 l 227 0 l 102 0 z "},"þ":{"ha":805,"x_min":102,"x_max":737,"o":"m 227 145 q 392 109 301 109 q 614 375 614 109 q 393 608 614 608 q 227 591 298 608 l 227 145 m 102 970 l 227 970 l 227 699 q 395 712 292 712 q 737 374 737 712 q 393 0 737 0 q 227 34 307 0 l 227 -258 l 102 -258 l 102 970 z "},"­":{"ha":644,"x_min":68,"x_max":576,"o":"m 576 407 l 576 305 l 68 305 l 68 407 l 576 407 z "},"×":{"ha":644,"x_min":68,"x_max":499,"o":"m 212 356 l 68 500 l 140 572 l 283 428 l 427 572 l 499 500 l 355 356 l 499 212 l 427 140 l 283 284 l 140 140 l 68 212 l 212 356 z "},"¹":{"ha":222,"x_min":34,"x_max":189,"o":"m 85 481 l 85 855 l 34 855 l 34 906 l 189 967 l 189 481 l 85 481 z "},"²":{"ha":400,"x_min":34,"x_max":366,"o":"m 34 481 l 34 573 q 262 821 262 718 q 188 878 262 878 q 47 841 113 878 l 47 936 q 188 970 113 970 q 366 821 366 970 q 172 573 366 702 l 366 573 l 366 481 l 34 481 z "},"³":{"ha":392,"x_min":34,"x_max":358,"o":"m 34 949 q 170 970 102 970 q 358 825 358 970 q 294 728 358 758 q 358 631 358 699 q 170 479 358 479 q 34 499 102 479 l 34 594 q 170 570 102 570 q 255 631 255 570 q 197 682 255 682 l 85 682 l 85 773 l 195 773 q 255 825 255 773 q 170 879 255 879 q 34 854 102 879 l 34 949 z "},"½":{"ha":978,"x_min":68,"x_max":910,"o":"m 193 0 l 68 0 l 668 970 l 793 970 l 193 0 m 134 481 l 134 855 l 84 855 l 84 906 l 238 967 l 238 481 l 134 481 m 578 0 l 578 92 q 807 339 807 236 q 732 397 807 397 q 591 359 658 397 l 591 454 q 732 488 658 488 q 910 339 910 488 q 715 92 910 220 l 910 92 l 910 0 l 578 0 z "},"¼":{"ha":983,"x_min":68,"x_max":915,"o":"m 193 0 l 68 0 l 668 970 l 793 970 l 193 0 m 134 481 l 134 855 l 84 855 l 84 906 l 238 967 l 238 481 l 134 481 m 591 468 q 727 488 659 488 q 915 343 915 488 q 851 246 915 277 q 915 149 915 217 q 727 -3 915 -3 q 591 18 659 -3 l 591 113 q 727 88 659 88 q 811 149 811 88 q 753 201 811 201 l 642 201 l 642 292 l 752 292 q 811 343 811 292 q 727 397 811 397 q 591 373 659 397 l 591 468 z "},"¾":{"ha":1010,"x_min":68,"x_max":943,"o":"m 255 0 l 130 0 l 730 970 l 855 970 l 255 0 m 892 0 l 789 0 l 789 102 l 557 102 l 557 193 l 705 484 l 815 484 l 671 193 l 789 193 l 789 372 l 892 372 l 892 193 l 943 167 l 943 102 l 892 102 l 892 0 m 68 949 q 203 970 136 970 q 391 825 391 970 q 328 728 391 758 q 391 631 391 699 q 203 479 391 479 q 68 499 136 479 l 68 594 q 203 570 136 570 q 288 631 288 570 q 229 682 288 682 l 118 682 l 118 773 l 229 773 q 288 825 288 773 q 203 879 288 879 q 68 854 136 879 l 68 949 z "},"Ł":{"ha":768,"x_min":0,"x_max":734,"o":"m 102 483 l 102 970 l 227 970 l 227 575 l 446 736 l 446 614 l 227 453 l 227 102 l 734 102 l 734 0 l 102 0 l 102 361 l 0 286 l 0 408 l 102 483 z "},"ł":{"ha":342,"x_min":7,"x_max":336,"o":"m 109 484 l 109 970 l 234 970 l 234 577 l 336 652 l 336 530 l 234 455 l 234 0 l 109 0 l 109 361 l 7 286 l 7 408 l 109 484 z "},"Ž":{"ha":902,"x_min":85,"x_max":817,"o":"m 817 970 l 817 868 l 236 102 l 804 102 l 804 0 l 85 0 l 85 102 l 684 868 l 98 868 l 98 970 l 817 970 m 281 1227 l 383 1227 l 451 1119 l 519 1227 l 621 1227 l 502 1051 l 400 1051 l 281 1227 z "},"ž":{"ha":705,"x_min":68,"x_max":637,"o":"m 81 712 l 637 712 l 637 610 l 212 95 l 624 95 l 624 0 l 68 0 l 68 95 l 498 610 l 81 610 l 81 712 m 183 970 l 285 970 l 353 861 l 420 970 l 522 970 l 404 793 l 302 793 l 183 970 z "},"≠":{"ha":644,"x_min":68,"x_max":576,"o":"m 184 203 l 68 203 l 68 305 l 242 305 l 300 407 l 68 407 l 68 509 l 359 509 l 475 712 l 576 712 l 460 509 l 576 509 l 576 407 l 402 407 l 344 305 l 576 305 l 576 203 l 286 203 l 170 0 l 68 0 l 184 203 z "},"∞":{"ha":1031,"x_min":68,"x_max":963,"o":"m 68 356 q 285 556 68 556 q 515 441 420 556 q 746 556 610 556 q 963 356 963 556 q 746 156 963 156 q 515 271 610 156 q 285 156 420 156 q 68 356 68 156 m 851 356 q 746 454 851 454 q 576 356 658 454 q 746 258 658 258 q 851 356 851 258 m 180 356 q 285 258 180 258 q 454 356 373 258 q 285 454 373 454 q 180 356 180 454 z "},"≤":{"ha":644,"x_min":68,"x_max":576,"o":"m 576 102 l 576 0 l 68 0 l 68 102 l 576 102 m 68 407 l 68 509 l 576 726 l 576 617 l 181 455 l 576 298 l 576 190 l 68 407 z "},"≥":{"ha":644,"x_min":68,"x_max":576,"o":"m 576 102 l 576 0 l 68 0 l 68 102 l 576 102 m 68 190 l 68 298 l 463 455 l 68 617 l 68 726 l 576 509 l 576 407 l 68 190 z "},"∂":{"ha":825,"x_min":101,"x_max":824,"o":"m 538 875 q 239 780 364 875 l 239 895 q 553 977 387 977 q 824 674 824 977 q 802 475 824 587 q 366 -7 705 -7 q 101 204 101 -7 q 111 292 101 244 q 540 588 170 588 l 699 588 q 709 688 709 644 q 538 875 709 875 m 676 475 l 518 475 q 236 292 273 475 q 229 231 229 258 q 389 95 229 95 q 676 475 593 95 z "},"∑":{"ha":916,"x_min":68,"x_max":848,"o":"m 68 970 l 848 970 l 848 868 l 203 868 l 570 380 l 203 -156 l 848 -156 l 848 -258 l 68 -258 l 68 -156 l 431 380 l 68 868 l 68 970 z "},"∏":{"ha":1119,"x_min":102,"x_max":1017,"o":"m 1017 970 l 1017 -258 l 899 -258 l 899 868 l 227 868 l 227 -258 l 102 -258 l 102 970 l 1017 970 z "},"π":{"ha":994,"x_min":17,"x_max":926,"o":"m 17 671 q 214 712 112 712 l 926 712 l 926 610 l 760 610 l 760 217 q 878 101 760 101 q 899 102 888 101 l 899 0 q 846 -3 871 -3 q 634 217 634 -3 l 634 610 l 339 610 l 339 -1 l 214 -1 l 214 610 q 17 570 112 610 l 17 671 z "},"∫":{"ha":399,"x_min":0,"x_max":399,"o":"m 399 1024 q 249 803 249 1024 q 250 766 249 785 l 275 258 q 276 218 276 237 q 0 -102 276 -102 l 0 0 q 151 221 151 0 q 150 258 151 239 l 124 766 q 123 806 123 787 q 399 1126 123 1126 l 399 1024 z "},"Ω":{"ha":1092,"x_min":81,"x_max":1010,"o":"m 92 0 l 92 102 l 298 102 q 81 543 81 285 q 546 983 81 983 q 1010 543 1010 983 q 793 102 1010 285 l 1000 102 l 1000 0 l 627 0 l 627 102 q 885 543 885 285 q 546 882 885 882 q 207 543 207 882 q 465 102 207 285 l 465 0 l 92 0 z "},"√":{"ha":916,"x_min":51,"x_max":916,"o":"m 51 712 l 298 712 l 463 165 l 793 1257 l 916 1257 l 509 -5 l 397 -5 l 207 610 l 51 610 l 51 712 z "},"≈":{"ha":712,"x_min":68,"x_max":644,"o":"m 644 305 l 644 203 q 495 170 569 170 q 349 203 421 170 q 207 237 277 237 q 68 203 137 237 l 68 305 q 217 339 144 339 q 363 305 291 339 q 505 271 435 271 q 644 305 576 271 m 644 509 l 644 407 q 495 373 569 373 q 349 407 421 373 q 207 441 277 441 q 68 407 137 441 l 68 509 q 217 543 144 543 q 363 509 291 543 q 505 475 435 475 q 644 509 576 475 z "},"Δ":{"ha":998,"x_min":17,"x_max":981,"o":"m 17 0 l 429 970 l 568 970 l 981 0 l 17 0 m 801 102 l 494 840 l 189 102 l 801 102 z "},"◊":{"ha":736,"x_min":34,"x_max":702,"o":"m 305 970 l 431 970 l 702 485 l 431 0 l 305 0 l 34 485 l 305 970 m 159 485 l 368 102 l 576 485 l 368 868 l 159 485 z "},"⁄":{"ha":861,"x_min":68,"x_max":793,"o":"m 193 0 l 68 0 l 668 970 l 793 970 l 193 0 z "},"ﬁ":{"ha":767,"x_min":102,"x_max":652,"o":"m 227 610 l 227 0 l 102 0 l 102 747 q 401 1019 102 1019 q 601 978 496 1019 l 601 876 q 401 917 500 917 q 227 759 227 917 l 227 712 l 652 712 l 652 0 l 526 0 l 526 610 l 227 610 z "},"ﬂ":{"ha":803,"x_min":102,"x_max":694,"o":"m 569 904 q 435 917 494 917 q 227 752 227 917 l 227 712 l 441 712 l 441 610 l 227 610 l 227 0 l 102 0 l 102 747 q 435 1019 102 1019 q 694 970 557 1019 l 694 0 l 569 0 l 569 904 z "},"":{"ha":1169,"x_min":68,"x_max":1101,"o":"m 801 225 l 801 294 l 628 303 l 628 669 l 714 669 l 749 398 l 827 398 l 801 745 l 639 745 l 585 719 l 531 745 l 368 745 l 342 398 l 420 398 l 454 669 l 541 669 l 541 303 l 368 294 l 368 225 l 801 225 m 362 902 l 387 962 l 448 937 l 484 991 l 538 956 l 585 1001 l 631 956 l 686 991 l 722 937 l 782 962 l 807 902 l 871 915 l 884 850 l 950 850 l 950 785 l 1014 772 l 1001 708 l 1061 683 l 1037 622 l 1092 587 l 1055 531 l 1101 486 l 1055 439 l 1092 383 l 1036 348 l 1061 287 l 1001 262 l 1014 198 l 950 185 l 950 120 l 884 120 l 871 55 l 807 68 l 782 7 l 722 33 l 686 -22 l 631 14 l 585 -31 l 538 14 l 484 -22 l 448 33 l 387 7 l 362 68 l 298 55 l 285 120 l 219 120 l 219 185 l 155 198 l 168 262 l 106 288 l 132 348 l 77 384 l 115 439 l 68 486 l 115 531 l 77 587 l 133 623 l 108 683 l 168 708 l 155 772 l 219 785 l 219 850 l 285 850 l 298 915 l 362 902 m 585 913 q 281 788 407 913 q 156 486 156 663 q 281 182 156 307 q 585 56 407 56 q 888 182 762 56 q 1013 486 1013 307 q 888 788 1013 663 q 585 913 762 913 m 585 877 q 861 762 747 877 q 976 486 976 647 q 861 208 976 323 q 585 93 747 93 q 308 208 422 93 q 193 486 193 323 q 308 762 193 647 q 585 877 422 877 z "},"ı":{"ha":356,"x_min":115,"x_max":241,"o":"m 241 712 l 241 0 l 115 0 l 115 712 l 241 712 z "},"˘":{"ha":495,"x_min":68,"x_max":427,"o":"m 68 970 l 159 970 q 248 868 159 868 q 336 970 336 868 l 427 970 q 248 793 427 793 q 68 970 68 793 z "},"˙":{"ha":275,"x_min":68,"x_max":207,"o":"m 207 970 l 207 841 l 68 841 l 68 970 l 207 970 z "},"˚":{"ha":442,"x_min":68,"x_max":374,"o":"m 129 924 q 222 831 129 831 q 313 924 313 831 q 222 1015 313 1015 q 129 924 129 1015 m 68 923 q 222 1065 68 1065 q 374 923 374 1065 q 222 781 374 781 q 68 923 68 781 z "},"˝":{"ha":664,"x_min":68,"x_max":596,"o":"m 179 970 l 341 970 l 179 808 l 68 808 l 179 970 m 434 970 l 596 970 l 434 808 l 323 808 l 434 970 z "},"˛":{"ha":393,"x_min":68,"x_max":326,"o":"m 312 0 q 175 -155 175 -85 q 233 -201 175 -201 q 326 -187 290 -201 l 326 -275 q 224 -289 284 -289 q 68 -172 68 -289 q 180 0 68 -83 l 312 0 z "},"ˇ":{"ha":475,"x_min":68,"x_max":407,"o":"m 68 970 l 170 970 l 237 861 l 305 970 l 407 970 l 288 793 l 186 793 l 68 970 z "},"€":{"ha":939,"x_min":68,"x_max":848,"o":"m 848 34 q 576 -7 722 -7 q 68 498 68 -7 q 576 977 68 977 q 848 936 722 977 l 848 827 q 590 875 722 875 q 193 639 252 875 l 718 639 l 718 537 l 180 537 l 180 463 l 718 463 l 718 361 l 193 361 q 590 95 245 95 q 848 142 722 95 l 848 34 z "},"Ż":{"ha":902,"x_min":85,"x_max":817,"o":"m 817 970 l 817 868 l 236 102 l 804 102 l 804 0 l 85 0 l 85 102 l 684 868 l 98 868 l 98 970 l 817 970 m 521 1227 l 521 1099 l 382 1099 l 382 1227 l 521 1227 z "},"ż":{"ha":705,"x_min":68,"x_max":637,"o":"m 81 712 l 637 712 l 637 610 l 212 95 l 624 95 l 624 0 l 68 0 l 68 95 l 498 610 l 81 610 l 81 712 m 422 970 l 422 841 l 283 841 l 283 970 l 422 970 z "},"Ź":{"ha":902,"x_min":85,"x_max":817,"o":"m 817 970 l 817 868 l 236 102 l 804 102 l 804 0 l 85 0 l 85 102 l 684 868 l 98 868 l 98 970 l 817 970 m 471 1227 l 633 1227 l 471 1065 l 360 1065 l 471 1227 z "},"ź":{"ha":705,"x_min":68,"x_max":637,"o":"m 81 712 l 637 712 l 637 610 l 212 95 l 624 95 l 624 0 l 68 0 l 68 95 l 498 610 l 81 610 l 81 712 m 373 970 l 535 970 l 373 808 l 262 808 l 373 970 z "},"Ą":{"ha":998,"x_min":17,"x_max":995,"o":"m 147 0 l 17 0 l 429 970 l 568 970 l 981 0 q 844 -155 844 -85 q 902 -201 844 -201 q 995 -187 960 -201 l 995 -275 q 894 -289 954 -289 q 737 -172 737 -289 q 842 0 737 -83 l 717 305 l 396 305 l 431 407 l 675 407 l 494 846 l 147 0 z "},"ą":{"ha":770,"x_min":68,"x_max":682,"o":"m 357 332 q 193 217 193 332 q 322 102 193 102 q 543 171 452 102 l 543 319 q 357 332 450 332 m 554 0 l 554 71 q 322 0 448 0 q 68 215 68 0 q 357 434 68 434 q 543 420 450 434 l 543 488 q 351 610 543 610 q 125 576 241 610 l 125 678 q 351 712 241 712 q 668 491 668 712 l 668 0 q 531 -155 531 -85 q 589 -201 531 -201 q 682 -187 646 -201 l 682 -275 q 581 -289 640 -289 q 424 -172 424 -289 q 554 0 424 -83 z "},"Ć":{"ha":939,"x_min":68,"x_max":848,"o":"m 848 34 q 576 -7 722 -7 q 68 498 68 -7 q 576 977 68 977 q 848 936 722 977 l 848 827 q 590 875 722 875 q 193 498 193 875 q 590 95 193 95 q 848 142 722 95 l 848 34 m 478 1227 l 640 1227 l 478 1065 l 367 1065 l 478 1227 z "},"ć":{"ha":695,"x_min":68,"x_max":637,"o":"m 637 20 q 448 0 549 0 q 68 370 68 0 q 448 712 68 712 q 637 692 549 712 l 637 590 q 441 610 549 610 q 193 370 193 610 q 441 102 193 102 q 637 122 549 102 l 637 20 m 376 970 l 538 970 l 376 808 l 265 808 l 376 970 z "},"Ń":{"ha":1068,"x_min":115,"x_max":953,"o":"m 115 0 l 115 970 l 241 970 l 834 189 l 834 970 l 953 970 l 953 0 l 827 0 l 234 788 l 234 0 l 115 0 m 554 1227 l 716 1227 l 554 1065 l 443 1065 l 554 1227 z "},"ń":{"ha":817,"x_min":102,"x_max":715,"o":"m 102 0 l 102 712 l 186 712 l 209 621 q 449 712 318 712 q 715 447 715 712 l 715 0 l 590 0 l 590 449 q 432 608 590 608 q 227 517 324 608 l 227 0 l 102 0 m 429 970 l 591 970 l 429 808 l 317 808 l 429 970 z "},"Ś":{"ha":875,"x_min":68,"x_max":807,"o":"m 102 34 l 102 149 q 431 95 254 95 q 682 278 682 95 q 497 434 682 434 l 372 434 q 68 699 68 434 q 458 977 68 977 q 773 936 627 977 l 773 821 q 458 875 627 875 q 193 699 193 875 q 372 543 193 543 l 497 543 q 807 278 807 543 q 431 -7 807 -7 q 102 34 254 -7 m 458 1227 l 620 1227 l 458 1065 l 347 1065 l 458 1227 z "},"ś":{"ha":712,"x_min":68,"x_max":644,"o":"m 95 34 l 95 142 q 349 102 220 102 q 519 203 519 102 q 400 298 519 298 l 298 298 q 68 509 68 298 q 364 712 68 712 q 617 678 492 712 l 617 570 q 364 610 492 610 q 186 509 186 610 q 298 414 186 414 l 400 414 q 644 203 644 414 q 349 0 644 0 q 95 34 220 0 m 376 970 l 538 970 l 376 808 l 265 808 l 376 970 z "},"Ę":{"ha":834,"x_min":115,"x_max":773,"o":"m 627 0 l 115 0 l 115 970 l 749 970 l 749 868 l 241 868 l 241 543 l 726 543 l 726 441 l 241 441 l 241 102 l 760 102 l 760 0 q 623 -155 623 -85 q 680 -201 623 -201 q 773 -187 738 -201 l 773 -275 q 672 -289 732 -289 q 515 -172 515 -289 q 627 0 515 -83 z "},"ę":{"ha":766,"x_min":68,"x_max":699,"o":"m 193 425 l 578 425 q 389 612 574 612 q 193 425 205 612 m 525 9 q 435 0 482 0 q 68 364 68 0 q 389 712 68 712 q 699 410 699 712 q 693 320 699 368 l 193 320 q 448 102 193 102 q 664 129 570 102 l 664 27 q 527 -155 527 -85 q 585 -201 527 -201 q 677 -187 642 -201 l 677 -275 q 576 -289 636 -289 q 420 -172 420 -289 q 525 9 420 -88 z "},"Č":{"ha":939,"x_min":68,"x_max":848,"o":"m 848 34 q 576 -7 722 -7 q 68 498 68 -7 q 576 977 68 977 q 848 936 722 977 l 848 827 q 590 875 722 875 q 193 498 193 875 q 590 95 193 95 q 848 142 722 95 l 848 34 m 350 1227 l 452 1227 l 519 1119 l 587 1227 l 689 1227 l 570 1051 l 469 1051 l 350 1227 z "},"č":{"ha":695,"x_min":68,"x_max":637,"o":"m 637 20 q 448 0 549 0 q 68 370 68 0 q 448 712 68 712 q 637 692 549 712 l 637 590 q 441 610 549 610 q 193 370 193 610 q 441 102 193 102 q 637 122 549 102 l 637 20 m 229 970 l 331 970 l 399 861 l 467 970 l 568 970 l 450 793 l 348 793 l 229 970 z "},"Ď":{"ha":1017,"x_min":115,"x_max":949,"o":"m 468 102 q 824 511 824 102 q 468 868 824 868 l 241 868 l 241 102 l 468 102 m 115 0 l 115 970 l 468 970 q 949 511 949 970 q 468 0 949 0 l 115 0 m 322 1227 l 424 1227 l 492 1119 l 559 1227 l 661 1227 l 543 1051 l 441 1051 l 322 1227 z "},"ď":{"ha":807,"x_min":68,"x_max":1000,"o":"m 580 567 q 406 604 504 604 q 191 375 191 604 q 406 104 191 104 q 580 131 504 104 l 580 567 m 705 43 q 386 0 576 0 q 68 370 68 0 q 406 712 68 712 q 580 678 498 712 l 580 970 l 705 970 l 705 43 m 1000 970 l 899 675 l 773 675 l 875 970 l 1000 970 z "},"Ě":{"ha":834,"x_min":115,"x_max":760,"o":"m 749 970 l 749 868 l 241 868 l 241 543 l 726 543 l 726 441 l 241 441 l 241 102 l 760 102 l 760 0 l 115 0 l 115 970 l 749 970 m 268 1227 l 370 1227 l 437 1119 l 505 1227 l 607 1227 l 488 1051 l 387 1051 l 268 1227 z "},"ě":{"ha":766,"x_min":68,"x_max":699,"o":"m 395 712 q 699 412 699 712 q 693 320 699 369 l 193 320 q 448 102 193 102 q 664 129 570 102 l 664 27 q 435 0 570 0 q 68 364 68 0 q 395 712 68 712 m 193 425 l 578 425 q 395 612 574 612 q 193 425 205 612 m 227 970 l 329 970 l 397 861 l 465 970 l 566 970 l 448 793 l 346 793 l 227 970 z "},"Ň":{"ha":1068,"x_min":115,"x_max":953,"o":"m 115 0 l 115 970 l 241 970 l 834 189 l 834 970 l 953 970 l 953 0 l 827 0 l 234 788 l 234 0 l 115 0 m 365 1227 l 467 1227 l 534 1119 l 602 1227 l 704 1227 l 585 1051 l 484 1051 l 365 1227 z "},"ň":{"ha":817,"x_min":102,"x_max":715,"o":"m 102 0 l 102 712 l 186 712 l 209 621 q 449 712 318 712 q 715 447 715 712 l 715 0 l 590 0 l 590 449 q 432 608 590 608 q 227 517 324 608 l 227 0 l 102 0 m 239 970 l 341 970 l 409 861 l 477 970 l 578 970 l 460 793 l 358 793 l 239 970 z "},"Ř":{"ha":885,"x_min":115,"x_max":868,"o":"m 115 0 l 115 970 l 529 970 q 806 737 806 970 q 535 457 806 548 l 868 0 l 703 0 l 394 436 l 394 518 q 672 732 672 562 q 517 866 672 866 l 241 866 l 241 0 l 115 0 m 248 1227 l 349 1227 l 417 1119 l 485 1227 l 587 1227 l 468 1051 l 366 1051 l 248 1227 z "},"ř":{"ha":458,"x_min":98,"x_max":437,"o":"m 102 0 l 102 712 l 186 712 l 209 621 q 434 712 302 712 l 434 608 q 227 517 307 608 l 227 0 l 102 0 m 98 970 l 200 970 l 268 861 l 336 970 l 437 970 l 319 793 l 217 793 l 98 970 z "},"Ť":{"ha":804,"x_min":34,"x_max":770,"o":"m 770 970 l 770 868 l 465 868 l 465 0 l 339 0 l 339 868 l 34 868 l 34 970 l 770 970 m 233 1227 l 334 1227 l 402 1119 l 470 1227 l 572 1227 l 453 1051 l 351 1051 l 233 1227 z "},"ť":{"ha":458,"x_min":102,"x_max":661,"o":"m 102 827 l 180 827 l 208 712 l 400 712 l 400 610 l 227 610 l 227 201 q 313 102 227 102 l 400 102 l 400 0 l 281 0 q 102 192 102 0 l 102 827 m 661 970 l 559 675 l 434 675 l 536 970 l 661 970 z "},"Ů":{"ha":1024,"x_min":109,"x_max":916,"o":"m 109 374 l 109 970 l 234 970 l 234 374 q 512 95 234 95 q 790 374 790 95 l 790 970 l 916 970 l 916 374 q 512 -7 916 -7 q 109 374 109 -7 m 420 1113 q 513 1020 420 1020 q 604 1113 604 1020 q 513 1204 604 1204 q 420 1113 420 1204 m 359 1112 q 513 1254 359 1254 q 665 1112 665 1254 q 513 970 665 970 q 359 1112 359 970 z "},"ů":{"ha":817,"x_min":102,"x_max":715,"o":"m 715 712 l 715 0 l 629 0 l 608 91 q 347 0 478 0 q 102 265 102 0 l 102 712 l 227 712 l 227 263 q 385 104 227 104 q 590 195 492 104 l 590 712 l 715 712 m 317 924 q 410 831 317 831 q 501 924 501 831 q 410 1015 501 1015 q 317 924 317 1015 m 256 923 q 410 1065 256 1065 q 562 923 562 1065 q 410 781 562 781 q 256 923 256 781 z "},"Ā":{"ha":998,"x_min":17,"x_max":981,"o":"m 147 0 l 17 0 l 429 970 l 568 970 l 981 0 l 842 0 l 717 305 l 396 305 l 431 407 l 675 407 l 494 846 l 147 0 m 669 1227 l 669 1126 l 330 1126 l 330 1227 l 669 1227 z "},"ā":{"ha":770,"x_min":68,"x_max":668,"o":"m 68 215 q 357 434 68 434 q 543 420 450 434 l 543 488 q 351 610 543 610 q 125 576 241 610 l 125 678 q 351 712 241 712 q 668 491 668 712 l 668 0 l 597 0 l 554 71 q 322 0 448 0 q 68 215 68 0 m 357 332 q 193 217 193 332 q 322 102 193 102 q 543 171 452 102 l 543 319 q 357 332 450 332 m 538 970 l 538 868 l 199 868 l 199 970 l 538 970 z "},"Ă":{"ha":998,"x_min":17,"x_max":981,"o":"m 147 0 l 17 0 l 429 970 l 568 970 l 981 0 l 842 0 l 717 305 l 396 305 l 431 407 l 675 407 l 494 846 l 147 0 m 319 1227 l 411 1227 q 499 1126 411 1126 q 587 1227 587 1126 l 679 1227 q 499 1051 679 1051 q 319 1227 319 1051 z "},"ă":{"ha":770,"x_min":68,"x_max":668,"o":"m 68 215 q 357 434 68 434 q 543 420 450 434 l 543 488 q 351 610 543 610 q 125 576 241 610 l 125 678 q 351 712 241 712 q 668 491 668 712 l 668 0 l 597 0 l 554 71 q 322 0 448 0 q 68 215 68 0 m 357 332 q 193 217 193 332 q 322 102 193 102 q 543 171 452 102 l 543 319 q 357 332 450 332 m 202 970 l 294 970 q 382 868 294 868 q 470 970 470 868 l 562 970 q 382 793 562 793 q 202 970 202 793 z "},"Ĉ":{"ha":939,"x_min":68,"x_max":848,"o":"m 848 34 q 576 -7 722 -7 q 68 498 68 -7 q 576 977 68 977 q 848 936 722 977 l 848 827 q 590 875 722 875 q 193 498 193 875 q 590 95 193 95 q 848 142 722 95 l 848 34 m 495 1227 l 597 1227 l 715 1051 l 614 1051 l 546 1160 l 478 1051 l 376 1051 l 495 1227 z "},"ĉ":{"ha":695,"x_min":68,"x_max":637,"o":"m 637 20 q 448 0 549 0 q 68 370 68 0 q 448 712 68 712 q 637 692 549 712 l 637 590 q 441 610 549 610 q 193 370 193 610 q 441 102 193 102 q 637 122 549 102 l 637 20 m 366 970 l 468 970 l 587 793 l 485 793 l 417 902 l 349 793 l 248 793 l 366 970 z "},"Ċ":{"ha":939,"x_min":68,"x_max":848,"o":"m 848 34 q 576 -7 722 -7 q 68 498 68 -7 q 576 977 68 977 q 848 936 722 977 l 848 827 q 590 875 722 875 q 193 498 193 875 q 590 95 193 95 q 848 142 722 95 l 848 34 m 636 1227 l 636 1099 l 497 1099 l 497 1227 l 636 1227 z "},"ċ":{"ha":695,"x_min":68,"x_max":637,"o":"m 637 20 q 448 0 549 0 q 68 370 68 0 q 448 712 68 712 q 637 692 549 712 l 637 590 q 441 610 549 610 q 193 370 193 610 q 441 102 193 102 q 637 122 549 102 l 637 20 m 507 970 l 507 841 l 368 841 l 368 970 l 507 970 z "},"Đ":{"ha":1017,"x_min":-34,"x_max":936,"o":"m 102 543 l 102 970 l 454 970 q 936 511 936 970 q 454 0 936 0 l 102 0 l 102 441 l -34 441 l -34 543 l 102 543 m 227 543 l 475 543 l 475 441 l 227 441 l 227 102 l 454 102 q 810 511 810 102 q 454 868 810 868 l 227 868 l 227 543 z "},"đ":{"ha":807,"x_min":68,"x_max":705,"o":"m 580 567 q 406 604 504 604 q 191 375 191 604 q 406 104 191 104 q 580 131 504 104 l 580 567 m 705 43 q 386 0 576 0 q 68 370 68 0 q 406 712 68 712 q 580 678 498 712 l 580 773 l 81 773 l 81 875 l 580 875 l 580 970 l 705 970 l 705 43 z "},"Ē":{"ha":834,"x_min":115,"x_max":760,"o":"m 749 970 l 749 868 l 241 868 l 241 543 l 726 543 l 726 441 l 241 441 l 241 102 l 760 102 l 760 0 l 115 0 l 115 970 l 749 970 m 607 1227 l 607 1126 l 268 1126 l 268 1227 l 607 1227 z "},"ē":{"ha":766,"x_min":68,"x_max":699,"o":"m 395 712 q 699 412 699 712 q 693 320 699 369 l 193 320 q 448 102 193 102 q 664 129 570 102 l 664 27 q 435 0 570 0 q 68 364 68 0 q 395 712 68 712 m 193 425 l 578 425 q 395 612 574 612 q 193 425 205 612 m 553 970 l 553 868 l 214 868 l 214 970 l 553 970 z "},"Ĕ":{"ha":834,"x_min":115,"x_max":760,"o":"m 749 970 l 749 868 l 241 868 l 241 543 l 726 543 l 726 441 l 241 441 l 241 102 l 760 102 l 760 0 l 115 0 l 115 970 l 749 970 m 258 1227 l 349 1227 q 437 1126 349 1126 q 526 1227 526 1126 l 617 1227 q 437 1051 617 1051 q 258 1227 258 1051 z "},"ĕ":{"ha":766,"x_min":68,"x_max":699,"o":"m 395 712 q 699 412 699 712 q 693 320 699 369 l 193 320 q 448 102 193 102 q 664 129 570 102 l 664 27 q 435 0 570 0 q 68 364 68 0 q 395 712 68 712 m 193 425 l 578 425 q 395 612 574 612 q 193 425 205 612 m 204 970 l 296 970 q 384 868 296 868 q 472 970 472 868 l 564 970 q 384 793 564 793 q 204 970 204 793 z "},"Ė":{"ha":834,"x_min":115,"x_max":760,"o":"m 749 970 l 749 868 l 241 868 l 241 543 l 726 543 l 726 441 l 241 441 l 241 102 l 760 102 l 760 0 l 115 0 l 115 970 l 749 970 m 507 1227 l 507 1099 l 368 1099 l 368 1227 l 507 1227 z "},"ė":{"ha":766,"x_min":68,"x_max":699,"o":"m 395 712 q 699 412 699 712 q 693 320 699 369 l 193 320 q 448 102 193 102 q 664 129 570 102 l 664 27 q 435 0 570 0 q 68 364 68 0 q 395 712 68 712 m 193 425 l 578 425 q 395 612 574 612 q 193 425 205 612 m 467 970 l 467 841 l 328 841 l 328 970 l 467 970 z "},"Ĝ":{"ha":939,"x_min":68,"x_max":848,"o":"m 848 38 q 595 -7 730 -7 q 68 498 68 -7 q 576 977 68 977 q 848 936 722 977 l 848 827 q 590 875 722 875 q 193 498 193 875 q 584 95 193 95 q 722 111 646 95 l 722 441 l 848 441 l 848 38 m 481 1227 l 583 1227 l 702 1051 l 600 1051 l 532 1160 l 465 1051 l 363 1051 l 481 1227 z "},"ĝ":{"ha":805,"x_min":68,"x_max":703,"o":"m 578 591 q 418 608 513 608 q 191 361 191 608 q 406 109 191 109 q 578 145 504 109 l 578 591 m 703 0 q 376 -258 703 -258 q 142 -224 244 -258 l 142 -122 q 377 -156 246 -156 q 578 0 578 -156 l 578 34 q 406 0 498 0 q 68 360 68 0 q 424 712 68 712 q 703 683 568 712 l 703 0 m 369 970 l 471 970 l 589 793 l 488 793 l 420 902 l 352 793 l 250 793 l 369 970 z "},"Ğ":{"ha":939,"x_min":68,"x_max":848,"o":"m 848 38 q 595 -7 730 -7 q 68 498 68 -7 q 576 977 68 977 q 848 936 722 977 l 848 827 q 590 875 722 875 q 193 498 193 875 q 584 95 193 95 q 722 111 646 95 l 722 441 l 848 441 l 848 38 m 353 1227 l 444 1227 q 532 1126 444 1126 q 621 1227 621 1126 l 712 1227 q 532 1051 712 1051 q 353 1227 353 1051 z "},"ğ":{"ha":805,"x_min":68,"x_max":703,"o":"m 578 591 q 418 608 513 608 q 191 361 191 608 q 406 109 191 109 q 578 145 504 109 l 578 591 m 703 0 q 376 -258 703 -258 q 142 -224 244 -258 l 142 -122 q 377 -156 246 -156 q 578 0 578 -156 l 578 34 q 406 0 498 0 q 68 360 68 0 q 424 712 68 712 q 703 683 568 712 l 703 0 m 233 970 l 325 970 q 413 868 325 868 q 501 970 501 868 l 593 970 q 413 793 593 793 q 233 970 233 793 z "},"Ġ":{"ha":939,"x_min":68,"x_max":848,"o":"m 848 38 q 595 -7 730 -7 q 68 498 68 -7 q 576 977 68 977 q 848 936 722 977 l 848 827 q 590 875 722 875 q 193 498 193 875 q 584 95 193 95 q 722 111 646 95 l 722 441 l 848 441 l 848 38 m 636 1227 l 636 1099 l 497 1099 l 497 1227 l 636 1227 z "},"ġ":{"ha":805,"x_min":68,"x_max":703,"o":"m 578 591 q 418 608 513 608 q 191 361 191 608 q 406 109 191 109 q 578 145 504 109 l 578 591 m 703 0 q 376 -258 703 -258 q 142 -224 244 -258 l 142 -122 q 377 -156 246 -156 q 578 0 578 -156 l 578 34 q 406 0 498 0 q 68 360 68 0 q 424 712 68 712 q 703 683 568 712 l 703 0 m 496 970 l 496 841 l 357 841 l 357 970 l 496 970 z "},"Ģ":{"ha":939,"x_min":68,"x_max":848,"o":"m 848 38 q 595 -7 730 -7 q 68 498 68 -7 q 576 977 68 977 q 848 936 722 977 l 848 827 q 590 875 722 875 q 193 498 193 875 q 584 95 193 95 q 722 111 646 95 l 722 441 l 848 441 l 848 38 m 572 -68 l 470 -258 l 345 -258 l 446 -68 l 572 -68 z "},"ģ":{"ha":805,"x_min":68,"x_max":703,"o":"m 578 591 q 418 608 513 608 q 191 361 191 608 q 406 109 191 109 q 578 145 504 109 l 578 591 m 703 0 q 376 -258 703 -258 q 142 -224 244 -258 l 142 -122 q 377 -156 246 -156 q 578 0 578 -156 l 578 34 q 406 0 498 0 q 68 360 68 0 q 424 712 68 712 q 703 683 568 712 l 703 0 m 547 970 l 446 780 l 320 780 l 422 970 l 547 970 z "},"Ĥ":{"ha":1055,"x_min":115,"x_max":939,"o":"m 115 0 l 115 970 l 241 970 l 241 543 l 814 543 l 814 970 l 939 970 l 939 0 l 814 0 l 814 441 l 241 441 l 241 0 l 115 0 m 477 1227 l 578 1227 l 697 1051 l 595 1051 l 528 1160 l 460 1051 l 358 1051 l 477 1227 z "},"ĥ":{"ha":817,"x_min":2,"x_max":715,"o":"m 102 0 l 102 970 l 227 970 l 227 635 q 449 712 318 712 q 715 447 715 712 l 715 0 l 590 0 l 590 449 q 432 608 590 608 q 227 517 324 608 l 227 0 l 102 0 m 121 1244 l 222 1244 l 341 1068 l 239 1068 l 172 1177 l 104 1068 l 2 1068 l 121 1244 z "},"Ħ":{"ha":1055,"x_min":115,"x_max":939,"o":"m 814 814 l 814 970 l 939 970 l 939 0 l 814 0 l 814 441 l 241 441 l 241 0 l 115 0 l 115 970 l 241 970 l 241 814 l 814 814 m 241 712 l 241 543 l 814 543 l 814 712 l 241 712 z "},"ħ":{"ha":817,"x_min":102,"x_max":715,"o":"m 227 773 l 227 635 q 449 712 318 712 q 715 447 715 712 l 715 0 l 590 0 l 590 449 q 432 608 590 608 q 227 517 324 608 l 227 0 l 102 0 l 102 970 l 227 970 l 227 875 l 715 875 l 715 773 l 227 773 z "},"Ĩ":{"ha":397,"x_min":29,"x_max":368,"o":"m 262 970 l 262 0 l 136 0 l 136 970 l 262 970 m 29 1196 q 117 1227 70 1227 q 192 1210 153 1227 q 269 1192 231 1192 q 368 1223 320 1192 l 368 1122 q 280 1090 328 1090 q 205 1108 245 1090 q 128 1126 166 1126 q 29 1095 77 1126 l 29 1196 z "},"ĩ":{"ha":356,"x_min":9,"x_max":348,"o":"m 241 712 l 241 0 l 116 0 l 116 712 l 241 712 m 9 939 q 97 970 50 970 q 172 952 132 970 q 249 935 211 935 q 348 966 300 935 l 348 864 q 260 833 307 833 q 185 850 224 833 q 108 868 146 868 q 9 837 57 868 l 9 939 z "},"Ī":{"ha":397,"x_min":29,"x_max":368,"o":"m 262 970 l 262 0 l 136 0 l 136 970 l 262 970 m 368 1227 l 368 1126 l 29 1126 l 29 1227 l 368 1227 z "},"ī":{"ha":356,"x_min":9,"x_max":348,"o":"m 241 712 l 241 0 l 116 0 l 116 712 l 241 712 m 348 970 l 348 868 l 9 868 l 9 970 l 348 970 z "},"Ĭ":{"ha":397,"x_min":19,"x_max":378,"o":"m 262 970 l 262 0 l 136 0 l 136 970 l 262 970 m 19 1227 l 111 1227 q 199 1126 111 1126 q 287 1227 287 1126 l 378 1227 q 199 1051 378 1051 q 19 1227 19 1051 z "},"ĭ":{"ha":356,"x_min":-1,"x_max":358,"o":"m 241 712 l 241 0 l 116 0 l 116 712 l 241 712 m -1 970 l 90 970 q 178 868 90 868 q 267 970 267 868 l 358 970 q 178 793 358 793 q -1 970 -1 793 z "},"Į":{"ha":397,"x_min":24,"x_max":281,"o":"m 136 0 l 136 970 l 261 970 l 261 0 q 131 -155 131 -85 q 189 -201 131 -201 q 281 -187 246 -201 l 281 -275 q 180 -289 240 -289 q 24 -172 24 -289 q 136 0 24 -83 z "},"į":{"ha":356,"x_min":3,"x_max":261,"o":"m 241 970 l 241 851 l 115 851 l 115 970 l 241 970 m 115 0 l 115 712 l 241 712 l 241 0 q 111 -155 111 -85 q 168 -201 111 -201 q 261 -187 226 -201 l 261 -275 q 160 -289 220 -289 q 3 -172 3 -289 q 115 0 3 -83 z "},"İ":{"ha":397,"x_min":129,"x_max":268,"o":"m 261 970 l 261 0 l 136 0 l 136 970 l 261 970 m 268 1227 l 268 1099 l 129 1099 l 129 1227 l 268 1227 z "},"Ĳ":{"ha":844,"x_min":136,"x_max":743,"o":"m 261 970 l 261 0 l 136 0 l 136 970 l 261 970 m 743 970 l 743 279 q 414 0 743 0 l 414 102 q 617 279 617 102 l 617 970 l 743 970 z "},"ĳ":{"ha":712,"x_min":115,"x_max":597,"o":"m 241 712 l 241 0 l 115 0 l 115 712 l 241 712 m 241 970 l 241 851 l 115 851 l 115 970 l 241 970 m 597 712 l 597 54 q 492 -270 597 -161 l 387 -199 q 471 54 471 -107 l 471 712 l 597 712 m 597 970 l 597 851 l 471 851 l 471 970 l 597 970 z "},"Ĵ":{"ha":468,"x_min":17,"x_max":453,"o":"m 346 970 l 346 279 q 17 0 346 0 l 17 102 q 220 279 220 102 l 220 970 l 346 970 m 233 1227 l 334 1227 l 453 1051 l 351 1051 l 283 1160 l 216 1051 l 114 1051 l 233 1227 z "},"ĵ":{"ha":356,"x_min":7,"x_max":346,"o":"m 241 712 l 241 54 q 136 -270 241 -161 l 31 -199 q 115 54 115 -107 l 115 712 l 241 712 m 125 970 l 227 970 l 346 793 l 244 793 l 176 902 l 109 793 l 7 793 l 125 970 z "},"Ķ":{"ha":949,"x_min":115,"x_max":932,"o":"m 241 970 l 241 0 l 115 0 l 115 970 l 241 970 m 923 970 l 486 512 l 932 0 l 758 0 l 363 467 l 363 543 l 764 970 l 923 970 m 570 -68 l 468 -258 l 342 -258 l 444 -68 l 570 -68 z "},"ķ":{"ha":801,"x_min":102,"x_max":757,"o":"m 102 0 l 102 970 l 227 970 l 227 656 q 467 712 331 712 q 732 507 732 712 q 529 300 732 357 l 757 0 l 598 0 l 372 302 l 372 358 q 607 507 607 379 q 458 610 607 610 q 227 547 340 610 l 227 0 l 102 0 m 475 -68 l 374 -258 l 248 -258 l 350 -68 l 475 -68 z "},"ĸ":{"ha":741,"x_min":102,"x_max":747,"o":"m 736 712 l 438 391 l 747 0 l 580 0 l 319 342 l 319 412 l 582 712 l 736 712 m 102 0 l 102 712 l 227 712 l 227 0 l 102 0 z "},"Ĺ":{"ha":782,"x_min":115,"x_max":748,"o":"m 241 970 l 241 102 l 748 102 l 748 0 l 115 0 l 115 970 l 241 970 m 228 1227 l 390 1227 l 228 1065 l 117 1065 l 228 1227 z "},"ĺ":{"ha":342,"x_min":35,"x_max":308,"o":"m 234 970 l 234 0 l 109 0 l 109 970 l 234 970 m 146 1244 l 308 1244 l 146 1082 l 35 1082 l 146 1244 z "},"Ļ":{"ha":782,"x_min":115,"x_max":748,"o":"m 241 970 l 241 102 l 748 102 l 748 0 l 115 0 l 115 970 l 241 970 m 511 -68 l 410 -258 l 284 -258 l 386 -68 l 511 -68 z "},"ļ":{"ha":342,"x_min":3,"x_max":234,"o":"m 234 970 l 234 0 l 109 0 l 109 970 l 234 970 m 231 -68 l 129 -258 l 3 -258 l 105 -68 l 231 -68 z "},"Ľ":{"ha":782,"x_min":115,"x_max":748,"o":"m 241 970 l 241 102 l 748 102 l 748 0 l 115 0 l 115 970 l 241 970 m 597 970 l 495 675 l 370 675 l 471 970 l 597 970 z "},"ľ":{"ha":342,"x_min":109,"x_max":529,"o":"m 234 970 l 234 0 l 109 0 l 109 970 l 234 970 m 529 970 l 427 675 l 302 675 l 404 970 l 529 970 z "},"Ŀ":{"ha":782,"x_min":115,"x_max":748,"o":"m 241 970 l 241 102 l 748 102 l 748 0 l 115 0 l 115 970 l 241 970 m 392 485 q 477 570 392 570 q 562 485 562 570 q 477 400 562 400 q 392 485 392 400 z "},"ŀ":{"ha":342,"x_min":109,"x_max":498,"o":"m 234 970 l 234 0 l 109 0 l 109 970 l 234 970 m 329 397 q 414 481 329 481 q 498 397 498 481 q 414 312 498 312 q 329 397 329 312 z "},"Ņ":{"ha":1068,"x_min":115,"x_max":953,"o":"m 115 0 l 115 970 l 241 970 l 834 189 l 834 970 l 953 970 l 953 0 l 827 0 l 234 788 l 234 0 l 115 0 m 614 -68 l 512 -258 l 387 -258 l 488 -68 l 614 -68 z "},"ņ":{"ha":817,"x_min":102,"x_max":715,"o":"m 102 0 l 102 712 l 186 712 l 209 621 q 449 712 318 712 q 715 447 715 712 l 715 0 l 590 0 l 590 449 q 432 608 590 608 q 227 517 324 608 l 227 0 l 102 0 m 488 -68 l 387 -258 l 261 -258 l 363 -68 l 488 -68 z "},"ŉ":{"ha":885,"x_min":-102,"x_max":783,"o":"m 170 0 l 170 712 l 254 712 l 277 621 q 517 712 386 712 q 783 447 783 712 l 783 0 l 658 0 l 658 449 q 500 608 658 608 q 295 517 392 608 l 295 0 l 170 0 m 125 970 l 24 675 l -102 675 l 0 970 l 125 970 z "},"Ŋ":{"ha":1068,"x_min":115,"x_max":953,"o":"m 825 3 l 234 788 l 234 0 l 115 0 l 115 970 l 241 970 l 834 189 l 834 970 l 953 970 l 953 54 q 848 -270 953 -161 l 743 -199 q 825 3 813 -122 z "},"ŋ":{"ha":817,"x_min":102,"x_max":715,"o":"m 590 449 q 432 608 590 608 q 227 517 324 608 l 227 0 l 102 0 l 102 712 l 186 712 l 209 621 q 449 712 318 712 q 715 447 715 712 l 715 54 q 610 -270 715 -161 l 505 -199 q 590 54 590 -107 l 590 449 z "},"Ō":{"ha":1129,"x_min":81,"x_max":1048,"o":"m 214 488 q 568 95 214 95 q 916 488 916 95 q 568 875 916 875 q 214 488 214 875 m 81 484 q 568 977 81 977 q 1048 484 1048 977 q 568 -7 1048 -7 q 81 484 81 -7 m 734 1227 l 734 1126 l 395 1126 l 395 1227 l 734 1227 z "},"ō":{"ha":814,"x_min":68,"x_max":746,"o":"m 193 359 q 407 102 193 102 q 621 359 621 102 q 407 610 621 610 q 193 359 193 610 m 68 356 q 407 712 68 712 q 746 356 746 712 q 407 1 746 1 q 68 356 69 1 m 576 970 l 576 868 l 237 868 l 237 970 l 576 970 z "},"Ŏ":{"ha":1129,"x_min":81,"x_max":1048,"o":"m 214 488 q 568 95 214 95 q 916 488 916 95 q 568 875 916 875 q 214 488 214 875 m 81 484 q 568 977 81 977 q 1048 484 1048 977 q 568 -7 1048 -7 q 81 484 81 -7 m 385 1227 l 477 1227 q 565 1126 477 1126 q 653 1227 653 1126 l 745 1227 q 565 1051 745 1051 q 385 1227 385 1051 z "},"ŏ":{"ha":814,"x_min":68,"x_max":746,"o":"m 193 359 q 407 102 193 102 q 621 359 621 102 q 407 610 621 610 q 193 359 193 610 m 68 356 q 407 712 68 712 q 746 356 746 712 q 407 1 746 1 q 68 356 69 1 m 227 970 l 319 970 q 407 868 319 868 q 495 970 495 868 l 587 970 q 407 793 587 793 q 227 970 227 793 z "},"Ő":{"ha":1129,"x_min":81,"x_max":1048,"o":"m 214 488 q 568 95 214 95 q 916 488 916 95 q 568 875 916 875 q 214 488 214 875 m 81 484 q 568 977 81 977 q 1048 484 1048 977 q 568 -7 1048 -7 q 81 484 81 -7 m 452 1227 l 614 1227 l 452 1065 l 341 1065 l 452 1227 m 707 1227 l 869 1227 l 707 1065 l 596 1065 l 707 1227 z "},"ő":{"ha":814,"x_min":68,"x_max":746,"o":"m 193 359 q 407 102 193 102 q 621 359 621 102 q 407 610 621 610 q 193 359 193 610 m 68 356 q 407 712 68 712 q 746 356 746 712 q 407 1 746 1 q 68 356 69 1 m 295 970 l 457 970 l 295 808 l 184 808 l 295 970 m 550 970 l 712 970 l 550 808 l 439 808 l 550 970 z "},"Ŕ":{"ha":885,"x_min":115,"x_max":868,"o":"m 115 0 l 115 970 l 529 970 q 806 737 806 970 q 535 457 806 548 l 868 0 l 703 0 l 394 436 l 394 518 q 672 732 672 562 q 517 866 672 866 l 241 866 l 241 0 l 115 0 m 444 1227 l 606 1227 l 444 1065 l 333 1065 l 444 1227 z "},"ŕ":{"ha":458,"x_min":102,"x_max":450,"o":"m 102 0 l 102 712 l 186 712 l 209 621 q 434 712 302 712 l 434 608 q 227 517 307 608 l 227 0 l 102 0 m 288 970 l 450 970 l 288 808 l 177 808 l 288 970 z "},"Ŗ":{"ha":885,"x_min":115,"x_max":868,"o":"m 115 0 l 115 970 l 529 970 q 806 737 806 970 q 535 457 806 548 l 868 0 l 703 0 l 394 436 l 394 518 q 672 732 672 562 q 517 866 672 866 l 241 866 l 241 0 l 115 0 m 545 -68 l 443 -258 l 317 -258 l 419 -68 l 545 -68 z "},"ŗ":{"ha":458,"x_min":-1,"x_max":434,"o":"m 102 0 l 102 712 l 186 712 l 209 621 q 434 712 302 712 l 434 608 q 227 517 307 608 l 227 0 l 102 0 m 226 -68 l 124 -258 l -1 -258 l 100 -68 l 226 -68 z "},"Ŝ":{"ha":875,"x_min":68,"x_max":807,"o":"m 102 34 l 102 149 q 431 95 254 95 q 682 278 682 95 q 497 434 682 434 l 372 434 q 68 699 68 434 q 458 977 68 977 q 773 936 627 977 l 773 821 q 458 875 627 875 q 193 699 193 875 q 372 543 193 543 l 497 543 q 807 278 807 543 q 431 -7 807 -7 q 102 34 254 -7 m 387 1227 l 488 1227 l 607 1051 l 505 1051 l 437 1160 l 370 1051 l 268 1051 l 387 1227 z "},"ŝ":{"ha":712,"x_min":68,"x_max":644,"o":"m 95 34 l 95 142 q 349 102 220 102 q 519 203 519 102 q 400 298 519 298 l 298 298 q 68 509 68 298 q 364 712 68 712 q 617 678 492 712 l 617 570 q 364 610 492 610 q 186 509 186 610 q 298 414 186 414 l 400 414 q 644 203 644 414 q 349 0 644 0 q 95 34 220 0 m 305 970 l 407 970 l 526 793 l 424 793 l 356 902 l 288 793 l 186 793 l 305 970 z "},"Ş":{"ha":875,"x_min":68,"x_max":807,"o":"m 336 -3 q 102 34 212 4 l 102 149 q 431 95 254 95 q 682 278 682 95 q 497 434 682 434 l 372 434 q 68 699 68 434 q 458 977 68 977 q 773 936 627 977 l 773 821 q 458 875 627 875 q 193 699 193 875 q 372 543 193 543 l 497 543 q 807 278 807 543 q 431 -7 807 -7 l 425 -7 l 400 -52 q 545 -169 545 -52 q 382 -286 545 -286 q 235 -252 309 -286 l 235 -179 q 382 -213 309 -213 q 455 -169 455 -213 q 399 -125 455 -125 l 275 -125 l 336 -3 z "},"ş":{"ha":712,"x_min":68,"x_max":644,"o":"m 285 2 q 95 34 189 8 l 95 142 q 349 102 220 102 q 519 203 519 102 q 400 298 519 298 l 298 298 q 68 509 68 298 q 364 712 68 712 q 617 678 492 712 l 617 570 q 364 610 492 610 q 186 509 186 610 q 298 414 186 414 l 400 414 q 644 203 644 414 q 374 1 644 9 l 346 -52 q 491 -169 491 -52 q 328 -286 491 -286 q 181 -252 254 -286 l 181 -179 q 328 -213 254 -213 q 401 -169 401 -213 q 345 -125 401 -125 l 220 -125 l 285 2 z "},"Ș":{"ha":875,"x_min":68,"x_max":807,"o":"m 102 34 l 102 149 q 431 95 254 95 q 682 278 682 95 q 497 434 682 434 l 372 434 q 68 699 68 434 q 458 977 68 977 q 773 936 627 977 l 773 821 q 458 875 627 875 q 193 699 193 875 q 372 543 193 543 l 497 543 q 807 278 807 543 q 431 -7 807 -7 q 102 34 254 -7 m 517 -68 l 416 -258 l 290 -258 l 392 -68 l 517 -68 z "},"ș":{"ha":712,"x_min":68,"x_max":644,"o":"m 95 34 l 95 142 q 349 102 220 102 q 519 203 519 102 q 400 298 519 298 l 298 298 q 68 509 68 298 q 364 712 68 712 q 617 678 492 712 l 617 570 q 364 610 492 610 q 186 509 186 610 q 298 414 186 414 l 400 414 q 644 203 644 414 q 349 0 644 0 q 95 34 220 0 m 436 -68 l 334 -258 l 209 -258 l 311 -68 l 436 -68 z "},"Ţ":{"ha":804,"x_min":34,"x_max":770,"o":"m 770 970 l 770 868 l 465 868 l 465 0 l 339 0 l 339 868 l 34 868 l 34 970 l 770 970 m 460 -68 l 358 -258 l 233 -258 l 334 -68 l 460 -68 z "},"ţ":{"ha":458,"x_min":85,"x_max":400,"o":"m 102 827 l 180 827 l 208 712 l 400 712 l 400 610 l 227 610 l 227 201 q 313 102 227 102 l 400 102 l 400 0 l 281 0 q 102 192 102 0 l 102 827 m 312 -68 l 210 -258 l 85 -258 l 186 -68 l 312 -68 z "},"Ŧ":{"ha":804,"x_min":34,"x_max":770,"o":"m 339 536 l 339 868 l 34 868 l 34 970 l 770 970 l 770 868 l 465 868 l 465 536 l 770 536 l 770 434 l 465 434 l 465 0 l 339 0 l 339 434 l 34 434 l 34 536 l 339 536 z "},"ŧ":{"ha":458,"x_min":0,"x_max":400,"o":"m 102 429 l 102 827 l 180 827 l 208 712 l 400 712 l 400 610 l 227 610 l 227 429 l 400 429 l 400 328 l 227 328 l 227 201 q 313 102 227 102 l 400 102 l 400 0 l 281 0 q 102 192 102 0 l 102 328 l 0 328 l 0 429 l 102 429 z "},"Ũ":{"ha":1024,"x_min":109,"x_max":916,"o":"m 109 374 l 109 970 l 234 970 l 234 374 q 512 95 234 95 q 790 374 790 95 l 790 970 l 916 970 l 916 374 q 512 -7 916 -7 q 109 374 109 -7 m 342 1196 q 431 1227 383 1227 q 505 1210 466 1227 q 583 1192 545 1192 q 682 1223 633 1192 l 682 1122 q 593 1090 641 1090 q 519 1108 558 1090 q 441 1126 479 1126 q 342 1095 391 1126 l 342 1196 z "},"ũ":{"ha":817,"x_min":102,"x_max":715,"o":"m 715 712 l 715 0 l 629 0 l 608 91 q 347 0 478 0 q 102 265 102 0 l 102 712 l 227 712 l 227 263 q 385 104 227 104 q 590 195 492 104 l 590 712 l 715 712 m 239 939 q 328 970 280 970 q 402 952 363 970 q 479 935 441 935 q 578 966 530 935 l 578 864 q 490 833 538 833 q 416 850 455 833 q 338 868 376 868 q 239 837 288 868 l 239 939 z "},"Ū":{"ha":1024,"x_min":109,"x_max":916,"o":"m 109 374 l 109 970 l 234 970 l 234 374 q 512 95 234 95 q 790 374 790 95 l 790 970 l 916 970 l 916 374 q 512 -7 916 -7 q 109 374 109 -7 m 682 1227 l 682 1126 l 342 1126 l 342 1227 l 682 1227 z "},"ū":{"ha":817,"x_min":102,"x_max":715,"o":"m 715 712 l 715 0 l 629 0 l 608 91 q 347 0 478 0 q 102 265 102 0 l 102 712 l 227 712 l 227 263 q 385 104 227 104 q 590 195 492 104 l 590 712 l 715 712 m 578 970 l 578 868 l 239 868 l 239 970 l 578 970 z "},"Ŭ":{"ha":1024,"x_min":109,"x_max":916,"o":"m 109 374 l 109 970 l 234 970 l 234 374 q 512 95 234 95 q 790 374 790 95 l 790 970 l 916 970 l 916 374 q 512 -7 916 -7 q 109 374 109 -7 m 332 1227 l 424 1227 q 512 1126 424 1126 q 600 1227 600 1126 l 692 1227 q 512 1051 692 1051 q 332 1227 332 1051 z "},"ŭ":{"ha":817,"x_min":102,"x_max":715,"o":"m 715 712 l 715 0 l 629 0 l 608 91 q 347 0 478 0 q 102 265 102 0 l 102 712 l 227 712 l 227 263 q 385 104 227 104 q 590 195 492 104 l 590 712 l 715 712 m 229 970 l 321 970 q 409 868 321 868 q 497 970 497 868 l 589 970 q 409 793 589 793 q 229 970 229 793 z "},"Ű":{"ha":1024,"x_min":109,"x_max":916,"o":"m 109 374 l 109 970 l 234 970 l 234 374 q 512 95 234 95 q 790 374 790 95 l 790 970 l 916 970 l 916 374 q 512 -7 916 -7 q 109 374 109 -7 m 393 1227 l 555 1227 l 393 1065 l 282 1065 l 393 1227 m 648 1227 l 810 1227 l 648 1065 l 537 1065 l 648 1227 z "},"ű":{"ha":817,"x_min":102,"x_max":715,"o":"m 715 712 l 715 0 l 629 0 l 608 91 q 347 0 478 0 q 102 265 102 0 l 102 712 l 227 712 l 227 263 q 385 104 227 104 q 590 195 492 104 l 590 712 l 715 712 m 290 970 l 452 970 l 290 808 l 178 808 l 290 970 m 545 970 l 707 970 l 545 808 l 433 808 l 545 970 z "},"Ų":{"ha":1024,"x_min":109,"x_max":916,"o":"m 478 -6 q 109 374 109 9 l 109 970 l 234 970 l 234 374 q 512 95 234 95 q 790 374 790 95 l 790 970 l 916 970 l 916 374 q 612 0 916 44 q 481 -155 481 -85 q 539 -201 481 -201 q 632 -187 597 -201 l 632 -275 q 531 -289 591 -289 q 374 -172 374 -289 q 478 -6 374 -86 z "},"ų":{"ha":817,"x_min":102,"x_max":729,"o":"m 590 0 l 590 91 q 347 0 478 0 q 102 265 102 0 l 102 712 l 227 712 l 227 263 q 385 104 227 104 q 590 195 492 104 l 590 712 l 715 712 l 715 0 q 578 -155 578 -85 q 636 -201 578 -201 q 729 -187 694 -201 l 729 -275 q 628 -289 688 -289 q 471 -172 471 -289 q 590 0 471 -83 z "},"Ŵ":{"ha":1289,"x_min":34,"x_max":1255,"o":"m 34 970 l 155 970 l 292 126 l 566 970 l 691 970 l 985 126 l 1139 970 l 1255 970 l 1072 0 l 901 0 l 627 812 l 362 0 l 193 0 l 34 970 m 593 1227 l 695 1227 l 814 1051 l 712 1051 l 644 1160 l 576 1051 l 475 1051 l 593 1227 z "},"ŵ":{"ha":1044,"x_min":24,"x_max":1020,"o":"m 24 712 l 151 712 l 277 154 l 462 712 l 575 712 l 773 154 l 887 712 l 1020 712 l 834 0 l 720 0 l 515 532 l 321 0 l 204 0 l 24 712 m 471 970 l 573 970 l 692 793 l 590 793 l 522 902 l 454 793 l 353 793 l 471 970 z "},"Ŷ":{"ha":882,"x_min":17,"x_max":865,"o":"m 17 970 l 156 970 l 435 463 l 719 970 l 865 970 l 494 339 l 494 0 l 369 0 l 369 339 l 17 970 m 390 1227 l 492 1227 l 610 1051 l 509 1051 l 441 1160 l 373 1051 l 271 1051 l 390 1227 z "},"ŷ":{"ha":712,"x_min":17,"x_max":696,"o":"m 17 712 l 153 712 l 355 156 l 563 712 l 696 712 l 400 -21 q 164 -263 321 -215 l 116 -174 q 290 -4 235 -122 l 17 712 m 306 970 l 408 970 l 526 793 l 425 793 l 357 902 l 289 793 l 187 793 l 306 970 z "},"ſ":{"ha":343,"x_min":102,"x_max":547,"o":"m 102 0 l 102 747 q 381 1005 102 1005 q 547 978 469 1005 l 547 876 q 380 903 473 903 q 227 752 227 903 l 227 0 l 102 0 z "},"Ё":{"ha":834,"x_min":115,"x_max":760,"o":"m 749 970 l 749 868 l 241 868 l 241 543 l 726 543 l 726 441 l 241 441 l 241 102 l 760 102 l 760 0 l 115 0 l 115 970 l 749 970 m 626 1227 l 626 1112 l 500 1112 l 500 1227 l 626 1227 m 375 1227 l 375 1112 l 250 1112 l 250 1227 l 375 1227 z "},"А":{"ha":998,"x_min":17,"x_max":981,"o":"m 147 0 l 17 0 l 429 970 l 568 970 l 981 0 l 842 0 l 717 305 l 396 305 l 431 407 l 675 407 l 494 846 l 147 0 z "},"Б":{"ha":889,"x_min":115,"x_max":804,"o":"m 794 970 l 794 868 l 241 868 l 241 104 l 517 104 q 679 273 679 104 q 481 454 679 454 l 353 454 l 353 556 l 487 556 q 804 280 804 556 q 529 0 804 0 l 115 0 l 115 970 l 794 970 z "},"В":{"ha":902,"x_min":115,"x_max":818,"o":"m 115 0 l 115 970 l 529 970 q 806 744 806 970 q 625 507 806 578 q 818 287 818 471 q 515 0 818 0 l 115 0 m 507 102 q 681 278 681 102 q 448 450 681 450 l 394 450 l 394 532 q 672 732 672 569 q 517 868 672 868 l 241 868 l 241 102 l 507 102 z "},"Г":{"ha":748,"x_min":115,"x_max":748,"o":"m 115 0 l 115 970 l 748 970 l 748 868 l 241 868 l 241 0 l 115 0 z "},"Д":{"ha":1152,"x_min":0,"x_max":1101,"o":"m 338 102 l 850 102 l 850 868 l 532 868 q 338 102 532 231 m 0 -258 l 0 102 l 125 102 q 406 868 406 102 l 406 970 l 976 970 l 976 102 l 1101 102 l 1101 -258 l 976 -258 l 976 0 l 125 0 l 125 -258 l 0 -258 z "},"Е":{"ha":834,"x_min":115,"x_max":760,"o":"m 749 970 l 749 868 l 241 868 l 241 543 l 726 543 l 726 441 l 241 441 l 241 102 l 760 102 l 760 0 l 115 0 l 115 970 l 749 970 z "},"Ж":{"ha":1430,"x_min":17,"x_max":1413,"o":"m 1261 0 q 972 418 1031 366 q 859 470 912 470 l 859 560 q 1079 765 968 560 q 1317 970 1190 970 l 1390 970 l 1390 861 l 1336 861 q 1172 701 1263 861 q 1003 514 1081 541 q 1115 438 1054 505 q 1413 0 1176 370 l 1261 0 m 778 970 l 778 0 l 652 0 l 652 970 l 778 970 m 17 0 q 315 438 254 370 q 427 514 376 505 q 258 701 349 541 q 94 861 168 861 l 41 861 l 41 970 l 113 970 q 352 765 241 970 q 571 560 463 560 l 571 470 q 458 418 518 470 q 169 0 399 366 l 17 0 z "},"З":{"ha":756,"x_min":68,"x_max":688,"o":"m 68 936 q 339 977 203 977 q 688 712 688 977 q 561 492 688 552 q 688 271 688 434 q 339 -7 688 -7 q 68 34 203 -7 l 68 142 q 339 95 203 95 q 563 271 563 95 q 392 441 563 441 l 170 441 l 170 543 l 390 543 q 563 712 563 543 q 339 875 563 875 q 68 827 203 875 l 68 936 z "},"И":{"ha":1034,"x_min":115,"x_max":919,"o":"m 800 0 l 800 802 l 241 0 l 115 0 l 115 970 l 234 970 l 234 168 l 793 970 l 919 970 l 919 0 l 800 0 z "},"Й":{"ha":1034,"x_min":115,"x_max":919,"o":"m 800 0 l 800 802 l 241 0 l 115 0 l 115 970 l 234 970 l 234 168 l 793 970 l 919 970 l 919 0 l 800 0 m 332 1210 l 424 1210 q 519 1101 424 1101 q 614 1210 614 1101 l 705 1210 q 519 1027 705 1027 q 332 1210 332 1027 z "},"К":{"ha":893,"x_min":115,"x_max":876,"o":"m 724 0 q 435 418 494 366 q 322 470 375 470 l 322 560 q 542 765 431 560 q 780 970 652 970 l 852 970 l 852 861 l 799 861 q 635 701 726 861 q 466 514 544 541 q 578 438 517 505 q 876 0 639 370 l 724 0 m 241 970 l 241 0 l 115 0 l 115 970 l 241 970 z "},"Л":{"ha":1034,"x_min":0,"x_max":918,"o":"m 0 102 q 281 543 281 102 l 281 970 l 918 970 l 918 0 l 793 0 l 793 868 l 406 868 l 406 543 q 0 0 406 0 l 0 102 z "},"М":{"ha":1248,"x_min":115,"x_max":1133,"o":"m 115 0 l 115 970 l 275 970 l 631 161 l 980 970 l 1133 970 l 1133 0 l 1021 0 l 1021 795 l 676 0 l 577 0 l 227 795 l 227 0 l 115 0 z "},"Н":{"ha":1034,"x_min":115,"x_max":919,"o":"m 115 0 l 115 970 l 241 970 l 241 549 l 793 549 l 793 970 l 919 970 l 919 0 l 793 0 l 793 448 l 241 448 l 241 0 l 115 0 z "},"О":{"ha":1129,"x_min":81,"x_max":1048,"o":"m 214 488 q 568 95 214 95 q 916 488 916 95 q 568 875 916 875 q 214 488 214 875 m 81 484 q 568 977 81 977 q 1048 484 1048 977 q 568 -7 1048 -7 q 81 484 81 -7 z "},"П":{"ha":1034,"x_min":115,"x_max":919,"o":"m 115 0 l 115 970 l 919 970 l 919 0 l 793 0 l 793 868 l 241 868 l 241 0 l 115 0 z "},"Р":{"ha":857,"x_min":115,"x_max":806,"o":"m 115 0 l 115 970 l 509 970 q 806 710 806 970 q 399 365 806 427 l 374 471 q 672 705 672 515 q 497 866 672 866 l 241 866 l 241 0 l 115 0 z "},"С":{"ha":939,"x_min":68,"x_max":848,"o":"m 848 34 q 576 -7 722 -7 q 68 498 68 -7 q 576 977 68 977 q 848 936 722 977 l 848 827 q 590 875 722 875 q 193 498 193 875 q 590 95 193 95 q 848 142 722 95 l 848 34 z "},"Т":{"ha":804,"x_min":34,"x_max":770,"o":"m 770 970 l 770 868 l 465 868 l 465 0 l 339 0 l 339 868 l 34 868 l 34 970 l 770 970 z "},"У":{"ha":886,"x_min":34,"x_max":869,"o":"m 869 970 l 535 182 q 271 0 458 0 q 111 47 184 0 l 111 149 q 269 102 183 102 q 416 184 374 102 l 34 970 l 166 970 l 480 304 l 739 970 l 869 970 z "},"Ф":{"ha":1169,"x_min":68,"x_max":1101,"o":"m 522 77 q 68 484 68 102 q 522 893 68 868 l 522 970 l 647 970 l 647 894 q 1101 484 1101 871 q 647 76 1101 98 l 647 0 l 522 0 l 522 77 m 522 179 l 522 791 q 199 488 199 766 q 522 179 199 204 m 647 791 l 647 178 q 970 488 970 201 q 647 791 970 769 z "},"Х":{"ha":949,"x_min":17,"x_max":932,"o":"m 170 0 l 17 0 l 398 485 l 17 970 l 170 970 l 475 582 l 780 970 l 932 970 l 551 485 l 932 0 l 780 0 l 475 388 l 170 0 z "},"Ц":{"ha":1063,"x_min":115,"x_max":995,"o":"m 115 0 l 115 970 l 241 970 l 241 102 l 744 102 l 744 970 l 869 970 l 869 102 l 995 102 l 995 -258 l 869 -258 l 869 0 l 115 0 z "},"Ч":{"ha":955,"x_min":85,"x_max":840,"o":"m 840 970 l 840 0 l 714 0 l 714 430 q 423 353 581 353 q 85 679 85 353 l 85 970 l 210 970 l 210 677 q 440 457 210 457 q 714 547 595 457 l 714 970 l 840 970 z "},"Ш":{"ha":1272,"x_min":115,"x_max":1156,"o":"m 115 0 l 115 970 l 241 970 l 241 102 l 573 102 l 573 970 l 699 970 l 699 102 l 1031 102 l 1031 970 l 1156 970 l 1156 0 l 115 0 z "},"Щ":{"ha":1350,"x_min":115,"x_max":1282,"o":"m 115 0 l 115 970 l 241 970 l 241 102 l 573 102 l 573 970 l 699 970 l 699 102 l 1031 102 l 1031 970 l 1156 970 l 1156 102 l 1282 102 l 1282 -258 l 1156 -258 l 1156 0 l 115 0 z "},"Ъ":{"ha":1160,"x_min":0,"x_max":1092,"o":"m 520 970 l 520 104 l 797 104 q 958 273 958 104 q 760 454 958 454 l 633 454 l 633 556 l 767 556 q 1092 280 1092 556 q 808 0 1092 0 l 395 0 l 395 868 l 0 868 l 0 970 l 520 970 z "},"Ы":{"ha":1190,"x_min":115,"x_max":1075,"o":"m 241 970 l 241 104 l 517 104 q 679 273 679 104 q 481 454 679 454 l 353 454 l 353 556 l 488 556 q 812 280 812 556 q 529 0 812 0 l 115 0 l 115 970 l 241 970 m 949 0 l 949 970 l 1075 970 l 1075 0 l 949 0 z "},"Ь":{"ha":880,"x_min":115,"x_max":812,"o":"m 241 970 l 241 104 l 517 104 q 679 273 679 104 q 481 454 679 454 l 353 454 l 353 556 l 487 556 q 812 280 812 556 q 529 0 812 0 l 115 0 l 115 970 l 241 970 z "},"Э":{"ha":932,"x_min":85,"x_max":865,"o":"m 85 142 q 342 95 210 95 q 737 441 710 95 l 134 441 l 134 543 l 738 543 q 342 875 715 875 q 85 827 210 875 l 85 936 q 356 977 210 977 q 865 498 865 977 q 356 -7 865 -7 q 85 34 210 -7 l 85 142 z "},"Ю":{"ha":1371,"x_min":115,"x_max":1303,"o":"m 115 0 l 115 970 l 240 970 l 240 543 l 515 543 q 912 977 538 977 q 1303 484 1303 977 q 912 -7 1303 -7 q 514 441 531 -7 l 240 441 l 240 0 l 115 0 m 912 95 q 1171 488 1171 95 q 912 875 1171 875 q 646 488 646 875 q 912 95 646 95 z "},"Я":{"ha":885,"x_min":17,"x_max":770,"o":"m 644 0 l 644 866 l 368 866 q 213 732 213 866 q 491 518 213 562 l 491 429 l 176 0 l 17 0 l 353 440 q 79 724 79 534 q 370 970 79 970 l 770 970 l 770 0 l 644 0 z "},"а":{"ha":770,"x_min":68,"x_max":668,"o":"m 68 215 q 357 434 68 434 q 543 420 450 434 l 543 488 q 351 610 543 610 q 125 576 241 610 l 125 678 q 351 712 241 712 q 668 491 668 712 l 668 0 l 597 0 l 554 71 q 322 0 448 0 q 68 215 68 0 m 357 332 q 193 217 193 332 q 322 102 193 102 q 543 171 452 102 l 543 319 q 357 332 450 332 z "},"б":{"ha":866,"x_min":85,"x_max":791,"o":"m 791 353 q 439 -7 791 -7 q 85 353 85 -7 l 85 573 q 454 970 85 970 q 768 1044 652 970 l 768 933 q 452 868 664 868 q 214 580 214 868 q 446 712 301 712 q 791 368 791 712 l 791 353 m 439 95 q 665 353 665 95 q 446 606 665 606 q 214 353 214 606 q 439 95 214 95 z "},"в":{"ha":791,"x_min":102,"x_max":723,"o":"m 480 102 q 586 210 586 102 q 421 312 586 312 l 367 312 l 367 394 q 577 536 577 418 q 490 610 577 610 l 227 610 l 227 102 l 480 102 m 102 0 l 102 712 l 502 712 q 711 534 711 712 q 578 370 711 423 q 723 212 723 334 q 488 0 723 0 l 102 0 z "},"г":{"ha":575,"x_min":102,"x_max":575,"o":"m 102 0 l 102 712 l 575 712 l 575 610 l 227 610 l 227 0 l 102 0 z "},"д":{"ha":968,"x_min":0,"x_max":918,"o":"m 308 102 l 667 102 l 667 610 l 416 610 q 308 102 416 231 m 0 -258 l 0 102 l 125 102 q 290 610 290 102 l 290 712 l 792 712 l 792 102 l 918 102 l 918 -258 l 792 -258 l 792 0 l 125 0 l 125 -258 l 0 -258 z "},"е":{"ha":766,"x_min":68,"x_max":699,"o":"m 395 712 q 699 412 699 712 q 693 320 699 369 l 193 320 q 448 102 193 102 q 664 129 570 102 l 664 27 q 435 0 570 0 q 68 364 68 0 q 395 712 68 712 m 193 425 l 578 425 q 395 612 574 612 q 193 425 205 612 z "},"ж":{"ha":1166,"x_min":17,"x_max":1149,"o":"m 1004 0 l 905 167 q 711 334 804 334 l 711 418 q 872 567 819 418 q 1053 715 926 715 l 1126 715 l 1126 603 l 1072 603 q 964 504 999 603 q 845 372 930 405 q 1037 179 925 357 l 1149 0 l 1004 0 m 645 717 l 645 0 l 519 0 l 519 717 l 645 717 m 17 0 l 130 179 q 321 372 241 357 q 202 504 237 405 q 94 603 168 603 l 41 603 l 41 715 l 113 715 q 294 567 241 715 q 456 418 347 418 l 456 334 q 262 167 362 334 l 162 0 l 17 0 z "},"з":{"ha":654,"x_min":68,"x_max":587,"o":"m 68 678 q 305 719 203 719 q 587 521 587 719 q 493 363 587 416 q 587 210 587 312 q 305 -7 587 -7 q 68 34 203 -7 l 68 142 q 305 95 203 95 q 461 210 461 95 q 358 312 461 312 l 136 312 l 136 414 l 356 414 q 461 521 461 414 q 305 617 461 617 q 68 570 203 617 l 68 678 z "},"и":{"ha":831,"x_min":102,"x_max":729,"o":"m 610 0 l 610 551 l 227 0 l 102 0 l 102 712 l 220 712 l 220 161 l 604 712 l 729 712 l 729 0 l 610 0 z "},"й":{"ha":831,"x_min":102,"x_max":729,"o":"m 610 0 l 610 551 l 227 0 l 102 0 l 102 712 l 220 712 l 220 161 l 604 712 l 729 712 l 729 0 l 610 0 m 236 970 l 328 970 q 416 868 328 868 q 504 970 504 868 l 595 970 q 416 793 595 793 q 236 970 236 793 z "},"к":{"ha":749,"x_min":102,"x_max":732,"o":"m 587 0 l 487 167 q 293 334 387 334 l 293 418 q 455 565 401 418 q 635 712 508 712 l 708 712 l 708 604 l 654 604 q 547 504 581 604 q 427 372 512 405 q 619 179 507 357 l 732 0 l 587 0 m 227 712 l 227 0 l 102 0 l 102 712 l 227 712 z "},"л":{"ha":805,"x_min":0,"x_max":703,"o":"m 0 102 q 161 285 161 102 l 161 712 l 703 712 l 703 0 l 578 0 l 578 610 l 286 610 l 286 285 q 0 0 286 0 l 0 102 z "},"м":{"ha":990,"x_min":102,"x_max":888,"o":"m 102 0 l 102 712 l 261 712 l 502 147 l 736 712 l 888 712 l 888 0 l 777 0 l 777 545 l 547 0 l 448 0 l 214 545 l 214 0 l 102 0 z "},"н":{"ha":831,"x_min":102,"x_max":729,"o":"m 102 0 l 102 712 l 227 712 l 227 414 l 604 414 l 604 712 l 729 712 l 729 0 l 604 0 l 604 312 l 227 312 l 227 0 l 102 0 z "},"о":{"ha":841,"x_min":68,"x_max":773,"o":"m 68 356 q 420 719 68 719 q 773 356 773 719 q 420 -7 773 -7 q 68 356 69 -7 m 193 359 q 420 95 193 95 q 648 359 648 95 q 420 617 648 617 q 193 359 193 617 z "},"п":{"ha":831,"x_min":102,"x_max":729,"o":"m 102 0 l 102 712 l 729 712 l 729 0 l 604 0 l 604 610 l 227 610 l 227 0 l 102 0 z "},"р":{"ha":825,"x_min":102,"x_max":758,"o":"m 227 145 q 392 109 301 109 q 634 375 634 109 q 393 608 634 608 q 227 591 298 608 l 227 145 m 102 683 q 395 712 243 712 q 758 374 758 712 q 393 0 758 0 q 227 34 307 0 l 227 -258 l 102 -258 l 102 683 z "},"с":{"ha":695,"x_min":68,"x_max":637,"o":"m 637 20 q 448 0 549 0 q 68 370 68 0 q 448 712 68 712 q 637 692 549 712 l 637 590 q 441 610 549 610 q 193 370 193 610 q 441 102 193 102 q 637 122 549 102 l 637 20 z "},"т":{"ha":627,"x_min":0,"x_max":627,"o":"m 627 712 l 627 610 l 376 610 l 376 0 l 251 0 l 251 610 l 0 610 l 0 712 l 627 712 z "},"у":{"ha":712,"x_min":17,"x_max":696,"o":"m 17 712 l 153 712 l 355 156 l 563 712 l 696 712 l 400 -21 q 164 -263 321 -215 l 116 -174 q 290 -4 235 -122 l 17 712 z "},"ф":{"ha":1115,"x_min":68,"x_max":1047,"o":"m 495 -5 q 68 355 68 18 q 495 717 68 694 l 495 970 l 620 970 l 620 718 q 1047 355 1047 696 q 620 -5 1047 16 l 620 -258 l 495 -258 l 495 -5 m 495 98 l 495 614 q 199 359 199 592 q 495 98 199 121 m 620 615 l 620 97 q 916 359 916 117 q 620 615 916 595 z "},"х":{"ha":746,"x_min":17,"x_max":729,"o":"m 163 0 l 17 0 l 300 356 l 17 712 l 163 712 l 373 448 l 583 712 l 729 712 l 446 356 l 729 0 l 583 0 l 373 264 l 163 0 z "},"ц":{"ha":940,"x_min":102,"x_max":872,"o":"m 102 0 l 102 712 l 227 712 l 227 102 l 621 102 l 621 712 l 747 712 l 747 102 l 872 102 l 872 -258 l 747 -258 l 747 0 l 102 0 z "},"ч":{"ha":826,"x_min":85,"x_max":724,"o":"m 724 712 l 724 0 l 599 0 l 599 281 q 362 203 500 203 q 85 482 85 203 l 85 712 l 210 712 l 210 480 q 379 308 210 308 q 599 398 514 308 l 599 712 l 724 712 z "},"ш":{"ha":1109,"x_min":102,"x_max":1007,"o":"m 102 0 l 102 712 l 227 712 l 227 102 l 492 102 l 492 712 l 617 712 l 617 102 l 882 102 l 882 712 l 1007 712 l 1007 0 l 102 0 z "},"щ":{"ha":1200,"x_min":102,"x_max":1133,"o":"m 102 0 l 102 712 l 227 712 l 227 102 l 492 102 l 492 712 l 617 712 l 617 102 l 882 102 l 882 712 l 1007 712 l 1007 102 l 1133 102 l 1133 -258 l 1007 -258 l 1007 0 l 102 0 z "},"ъ":{"ha":917,"x_min":0,"x_max":849,"o":"m 386 712 l 386 104 l 588 104 q 722 218 722 104 q 599 311 722 311 l 478 311 l 478 413 l 606 413 q 849 212 849 413 q 600 0 849 0 l 260 0 l 260 610 l 0 610 l 0 712 l 386 712 z "},"ы":{"ha":1024,"x_min":102,"x_max":922,"o":"m 797 0 l 797 712 l 922 712 l 922 0 l 797 0 m 227 712 l 227 104 l 443 104 q 564 218 564 104 q 440 311 564 311 l 319 311 l 319 413 l 446 413 q 690 212 690 413 q 454 0 690 0 l 102 0 l 102 712 l 227 712 z "},"ь":{"ha":792,"x_min":102,"x_max":690,"o":"m 227 712 l 227 104 l 443 104 q 564 218 564 104 q 440 311 564 311 l 319 311 l 319 413 l 446 413 q 690 212 690 413 q 454 0 690 0 l 102 0 l 102 712 l 227 712 z "},"э":{"ha":712,"x_min":68,"x_max":644,"o":"m 68 122 q 244 102 156 102 q 515 313 488 102 l 111 313 l 111 414 l 516 414 q 244 610 492 610 q 68 590 156 610 l 68 692 q 258 712 156 712 q 644 370 644 712 q 258 0 644 0 q 68 20 156 0 l 68 122 z "},"ю":{"ha":1154,"x_min":102,"x_max":1086,"o":"m 777 95 q 954 359 954 95 q 777 617 954 617 q 591 359 591 617 q 777 95 591 95 m 102 0 l 102 712 l 227 712 l 227 414 l 461 414 q 777 719 486 719 q 1086 355 1086 719 q 777 -7 1086 -7 q 460 312 479 -7 l 227 312 l 227 0 l 102 0 z "},"я":{"ha":777,"x_min":17,"x_max":675,"o":"m 549 0 l 549 608 l 307 608 q 213 528 213 608 q 430 389 213 433 l 430 300 l 176 0 l 17 0 l 292 318 q 79 527 79 384 q 309 712 79 712 l 675 712 l 675 0 l 549 0 z "},"ё":{"ha":766,"x_min":68,"x_max":699,"o":"m 395 712 q 699 412 699 712 q 693 320 699 369 l 193 320 q 448 102 193 102 q 664 129 570 102 l 664 27 q 435 0 570 0 q 68 364 68 0 q 395 712 68 712 m 193 425 l 578 425 q 395 612 574 612 q 193 425 205 612 m 572 970 l 572 854 l 446 854 l 446 970 l 572 970 m 321 970 l 321 854 l 195 854 l 195 970 l 321 970 z "},";":{"ha":363,"x_min":68,"x_max":295,"o":"m 295 712 l 295 587 l 170 587 l 170 712 l 295 712 m 295 125 l 193 -170 l 68 -170 l 170 125 l 295 125 z "},"΄":{"ha":409,"x_min":68,"x_max":341,"o":"m 179 970 l 341 970 l 179 808 l 68 808 l 179 970 z "},"΅":{"ha":709,"x_min":68,"x_max":641,"o":"m 641 970 l 641 854 l 515 854 l 515 970 l 641 970 m 193 970 l 193 854 l 68 854 l 68 970 l 193 970 m 315 970 l 477 970 l 315 808 l 203 808 l 315 970 z "},"Ά":{"ha":998,"x_min":17,"x_max":981,"o":"m 179 970 l 341 970 l 179 808 l 68 808 l 179 970 z "},"·":{"ha":261,"x_min":68,"x_max":193,"o":"m 193 712 l 193 587 l 68 587 l 68 712 l 193 712 z "},"Έ":{"ha":1006,"x_min":-34,"x_max":931,"o":"m 77 970 l 239 970 l 77 808 l -34 808 l 77 970 m 921 970 l 921 868 l 412 868 l 412 543 l 897 543 l 897 441 l 412 441 l 412 102 l 931 102 l 931 0 l 287 0 l 287 970 l 921 970 z "},"Ή":{"ha":1226,"x_min":-34,"x_max":1111,"o":"m 77 970 l 239 970 l 77 808 l -34 808 l 77 970 m 287 0 l 287 970 l 412 970 l 412 543 l 985 543 l 985 970 l 1111 970 l 1111 0 l 985 0 l 985 441 l 412 441 l 412 0 l 287 0 z "},"Ί":{"ha":568,"x_min":-34,"x_max":433,"o":"m 77 970 l 239 970 l 77 808 l -34 808 l 77 970 m 433 970 l 433 0 l 307 0 l 307 970 l 433 970 z "},"Ό":{"ha":1199,"x_min":-34,"x_max":1118,"o":"m 77 970 l 239 970 l 77 808 l -34 808 l 77 970 m 283 488 q 638 95 283 95 q 985 488 985 95 q 638 875 985 875 q 283 488 283 875 m 151 484 q 638 977 151 977 q 1118 484 1118 977 q 638 -7 1118 -7 q 151 484 151 -7 z "},"Ύ":{"ha":1121,"x_min":-34,"x_max":1104,"o":"m 77 970 l 239 970 l 77 808 l -34 808 l 77 970 m 256 970 l 395 970 l 675 463 l 958 970 l 1104 970 l 734 339 l 734 0 l 608 0 l 608 339 l 256 970 z "},"Ώ":{"ha":1162,"x_min":-34,"x_max":1080,"o":"m 77 970 l 239 970 l 77 808 l -34 808 l 77 970 m 161 0 l 161 102 l 368 102 q 151 543 151 285 q 616 983 151 983 q 1080 543 1080 983 q 863 102 1080 285 l 1070 102 l 1070 0 l 697 0 l 697 102 q 955 543 955 285 q 616 882 955 882 q 277 543 277 882 q 534 102 277 285 l 534 0 l 161 0 z "},"ΐ":{"ha":356,"x_min":-109,"x_max":465,"o":"m 241 712 l 241 0 l 115 0 l 115 712 l 241 712 m 465 970 l 465 854 l 339 854 l 339 970 l 465 970 m 17 970 l 17 854 l -109 854 l -109 970 l 17 970 m 138 970 l 300 970 l 138 808 l 27 808 l 138 970 z "},"Α":{"ha":998,"x_min":17,"x_max":981,"o":"m 147 0 l 17 0 l 429 970 l 568 970 l 981 0 l 842 0 l 717 305 l 396 305 l 431 407 l 675 407 l 494 846 l 147 0 z "},"Β":{"ha":902,"x_min":115,"x_max":818,"o":"m 115 0 l 115 970 l 529 970 q 806 744 806 970 q 625 507 806 578 q 818 287 818 471 q 515 0 818 0 l 115 0 m 507 102 q 681 278 681 102 q 448 450 681 450 l 394 450 l 394 532 q 672 732 672 569 q 517 868 672 868 l 241 868 l 241 102 l 507 102 z "},"Γ":{"ha":748,"x_min":115,"x_max":748,"o":"m 115 0 l 115 970 l 748 970 l 748 868 l 241 868 l 241 0 l 115 0 z "},"Ε":{"ha":834,"x_min":115,"x_max":760,"o":"m 749 970 l 749 868 l 241 868 l 241 543 l 726 543 l 726 441 l 241 441 l 241 102 l 760 102 l 760 0 l 115 0 l 115 970 l 749 970 z "},"Ζ":{"ha":902,"x_min":85,"x_max":817,"o":"m 817 970 l 817 868 l 236 102 l 804 102 l 804 0 l 85 0 l 85 102 l 684 868 l 98 868 l 98 970 l 817 970 z "},"Η":{"ha":1055,"x_min":115,"x_max":939,"o":"m 115 0 l 115 970 l 241 970 l 241 543 l 814 543 l 814 970 l 939 970 l 939 0 l 814 0 l 814 441 l 241 441 l 241 0 l 115 0 z "},"Θ":{"ha":1129,"x_min":81,"x_max":1048,"o":"m 214 488 q 568 95 214 95 q 916 488 916 95 q 568 875 916 875 q 214 488 214 875 m 81 484 q 568 977 81 977 q 1048 484 1048 977 q 568 -7 1048 -7 q 81 484 81 -7 m 334 551 l 792 551 l 792 450 l 334 450 l 334 551 z "},"Ι":{"ha":397,"x_min":136,"x_max":261,"o":"m 261 970 l 261 0 l 136 0 l 136 970 l 261 970 z "},"Κ":{"ha":949,"x_min":115,"x_max":932,"o":"m 241 970 l 241 0 l 115 0 l 115 970 l 241 970 m 923 970 l 486 512 l 932 0 l 758 0 l 363 467 l 363 543 l 764 970 l 923 970 z "},"Λ":{"ha":998,"x_min":17,"x_max":981,"o":"m 17 0 l 429 970 l 568 970 l 981 0 l 842 0 l 494 840 l 147 0 l 17 0 z "},"Μ":{"ha":1248,"x_min":115,"x_max":1133,"o":"m 115 0 l 115 970 l 275 970 l 631 161 l 980 970 l 1133 970 l 1133 0 l 1021 0 l 1021 795 l 676 0 l 577 0 l 227 795 l 227 0 l 115 0 z "},"Ν":{"ha":1068,"x_min":115,"x_max":953,"o":"m 115 0 l 115 970 l 241 970 l 834 189 l 834 970 l 953 970 l 953 0 l 827 0 l 234 788 l 234 0 l 115 0 z "},"Ξ":{"ha":811,"x_min":68,"x_max":743,"o":"m 68 109 l 743 109 l 743 0 l 68 0 l 68 109 m 68 970 l 743 970 l 743 861 l 68 861 l 68 970 m 109 551 l 703 551 l 703 443 l 109 443 l 109 551 z "},"Ο":{"ha":1129,"x_min":81,"x_max":1048,"o":"m 214 488 q 568 95 214 95 q 916 488 916 95 q 568 875 916 875 q 214 488 214 875 m 81 484 q 568 977 81 977 q 1048 484 1048 977 q 568 -7 1048 -7 q 81 484 81 -7 z "},"Π":{"ha":1034,"x_min":115,"x_max":919,"o":"m 115 0 l 115 970 l 919 970 l 919 0 l 793 0 l 793 868 l 241 868 l 241 0 l 115 0 z "},"Ρ":{"ha":857,"x_min":115,"x_max":806,"o":"m 115 0 l 115 970 l 509 970 q 806 710 806 970 q 399 365 806 427 l 374 471 q 672 705 672 515 q 497 866 672 866 l 241 866 l 241 0 l 115 0 z "},"Σ":{"ha":800,"x_min":68,"x_max":732,"o":"m 68 970 l 732 970 l 732 868 l 210 868 l 488 509 l 210 102 l 732 102 l 732 0 l 68 0 l 68 102 l 342 509 l 68 868 l 68 970 z "},"Τ":{"ha":804,"x_min":34,"x_max":770,"o":"m 770 970 l 770 868 l 465 868 l 465 0 l 339 0 l 339 868 l 34 868 l 34 970 l 770 970 z "},"Υ":{"ha":882,"x_min":17,"x_max":865,"o":"m 17 970 l 156 970 l 435 463 l 719 970 l 865 970 l 494 339 l 494 0 l 369 0 l 369 339 l 17 970 z "},"Φ":{"ha":1169,"x_min":68,"x_max":1101,"o":"m 522 77 q 68 484 68 102 q 522 893 68 868 l 522 970 l 647 970 l 647 894 q 1101 484 1101 871 q 647 76 1101 98 l 647 0 l 522 0 l 522 77 m 522 179 l 522 791 q 199 488 199 766 q 522 179 199 204 m 647 791 l 647 178 q 970 488 970 201 q 647 791 970 769 z "},"Χ":{"ha":956,"x_min":17,"x_max":932,"o":"m 399 485 l 17 970 l 170 970 l 475 582 l 780 970 l 932 970 l 551 485 l 932 0 l 780 0 l 475 388 l 170 0 l 17 0 l 399 485 z "},"Ψ":{"ha":1146,"x_min":81,"x_max":1065,"o":"m 511 389 l 511 970 l 635 970 l 635 389 q 939 670 939 412 l 939 970 l 1065 970 l 1065 670 q 635 286 1065 310 l 635 0 l 511 0 l 511 286 q 81 670 81 310 l 81 970 l 207 970 l 207 670 q 511 389 207 412 z "},"Ϊ":{"ha":397,"x_min":10,"x_max":387,"o":"m 261 970 l 261 0 l 136 0 l 136 970 l 261 970 m 387 1227 l 387 1112 l 261 1112 l 261 1227 l 387 1227 m 136 1227 l 136 1112 l 10 1112 l 10 1227 l 136 1227 z "},"Ϋ":{"ha":882,"x_min":17,"x_max":865,"o":"m 17 970 l 156 970 l 435 463 l 719 970 l 865 970 l 494 339 l 494 0 l 369 0 l 369 339 l 17 970 m 629 1227 l 629 1112 l 504 1112 l 504 1227 l 629 1227 m 378 1227 l 378 1112 l 253 1112 l 253 1227 l 378 1227 z "},"ά":{"ha":928,"x_min":68,"x_max":874,"o":"m 68 356 q 373 712 68 712 q 674 492 597 712 l 747 712 l 874 712 l 740 354 l 865 0 l 736 0 l 664 224 q 373 0 578 0 q 68 356 69 0 m 193 359 q 373 102 193 102 q 614 359 532 102 q 373 610 532 610 q 193 359 193 610 m 464 970 l 626 970 l 464 808 l 353 808 l 464 970 z "},"έ":{"ha":627,"x_min":68,"x_max":559,"o":"m 559 576 q 342 617 458 617 q 200 528 200 617 q 366 420 200 420 l 498 420 l 498 319 l 364 319 q 193 197 193 319 q 342 95 193 95 q 559 136 458 95 l 559 27 q 342 -7 458 -7 q 68 197 68 -7 q 216 370 68 332 q 75 528 75 410 q 349 719 75 719 q 559 685 458 719 l 559 576 m 334 970 l 496 970 l 334 808 l 222 808 l 334 970 z "},"ή":{"ha":817,"x_min":102,"x_max":715,"o":"m 102 0 l 102 712 l 186 712 l 209 621 q 469 712 338 712 q 715 447 715 712 l 715 -258 l 590 -258 l 590 449 q 432 608 590 608 q 227 517 324 608 l 227 0 l 102 0 m 429 970 l 591 970 l 429 808 l 317 808 l 429 970 z "},"ί":{"ha":356,"x_min":87,"x_max":360,"o":"m 241 712 l 241 0 l 115 0 l 115 712 l 241 712 m 198 970 l 360 970 l 198 808 l 87 808 l 198 970 z "},"ΰ":{"ha":821,"x_min":102,"x_max":719,"o":"m 102 290 l 102 712 l 227 712 l 227 290 q 410 88 227 88 q 593 290 593 88 l 593 712 l 719 712 l 719 290 q 410 -14 719 -14 q 102 290 102 -14 m 697 970 l 697 854 l 572 854 l 572 970 l 697 970 m 250 970 l 250 854 l 124 854 l 124 970 l 250 970 m 371 970 l 533 970 l 371 808 l 260 808 l 371 970 z "},"α":{"ha":928,"x_min":68,"x_max":874,"o":"m 68 356 q 373 712 68 712 q 674 492 597 712 l 747 712 l 874 712 l 740 354 l 865 0 l 736 0 l 664 224 q 373 0 578 0 q 68 356 69 0 m 193 359 q 373 102 193 102 q 614 359 532 102 q 373 610 532 610 q 193 359 193 610 z "},"β":{"ha":811,"x_min":102,"x_max":760,"o":"m 102 -245 l 102 591 q 437 970 102 970 q 715 742 715 970 q 545 522 715 564 q 760 258 760 496 q 479 -1 760 -1 q 315 39 387 -1 l 315 141 q 481 100 388 100 q 635 258 635 100 q 383 468 635 467 l 383 548 q 599 742 599 585 q 432 868 599 868 q 227 589 227 868 l 227 -245 l 102 -245 z "},"γ":{"ha":732,"x_min":24,"x_max":702,"o":"m 24 712 l 156 712 l 361 138 l 570 712 l 702 712 l 420 0 l 420 -258 l 294 -258 l 294 0 l 24 712 z "},"δ":{"ha":814,"x_min":68,"x_max":746,"o":"m 746 366 q 402 -7 746 -7 q 68 359 68 -7 q 417 705 68 705 q 145 868 305 789 l 145 970 l 677 970 l 677 868 l 340 868 q 746 366 737 654 m 621 363 q 402 610 621 610 q 191 359 191 610 q 403 95 191 95 q 621 363 621 95 z "},"ε":{"ha":627,"x_min":68,"x_max":559,"o":"m 559 576 q 342 617 458 617 q 200 528 200 617 q 366 420 200 420 l 498 420 l 498 319 l 364 319 q 193 197 193 319 q 342 95 193 95 q 559 136 458 95 l 559 27 q 342 -7 458 -7 q 68 197 68 -7 q 216 370 68 332 q 75 528 75 410 q 349 719 75 719 q 559 685 458 719 l 559 576 z "},"ζ":{"ha":680,"x_min":68,"x_max":646,"o":"m 205 970 l 646 970 l 646 868 q 190 286 190 574 q 338 102 190 102 l 460 102 q 640 -50 640 102 q 423 -271 640 -189 l 376 -178 q 522 -51 522 -131 q 464 0 522 0 l 341 0 q 68 283 68 0 q 482 868 68 587 l 205 868 l 205 970 z "},"η":{"ha":817,"x_min":102,"x_max":715,"o":"m 102 0 l 102 712 l 186 712 l 209 621 q 469 712 338 712 q 715 447 715 712 l 715 -258 l 590 -258 l 590 449 q 432 608 590 608 q 227 517 324 608 l 227 0 l 102 0 z "},"θ":{"ha":844,"x_min":81,"x_max":763,"o":"m 214 454 q 426 95 223 95 q 630 454 622 95 l 214 454 m 629 556 q 426 875 612 875 q 216 556 233 875 l 629 556 m 81 484 q 426 977 81 977 q 763 484 763 977 q 426 -7 763 -7 q 81 484 81 -7 z "},"ι":{"ha":356,"x_min":115,"x_max":241,"o":"m 241 712 l 241 0 l 115 0 l 115 712 l 241 712 z "},"κ":{"ha":804,"x_min":102,"x_max":770,"o":"m 753 712 l 427 389 l 770 0 l 595 0 l 315 345 l 315 420 l 595 712 l 753 712 m 227 712 l 227 0 l 102 0 l 102 712 l 227 712 z "},"λ":{"ha":760,"x_min":27,"x_max":726,"o":"m 313 703 q 140 880 252 834 l 188 975 q 431 733 352 927 l 726 0 l 587 0 l 374 563 l 163 0 l 27 0 l 313 703 z "},"ν":{"ha":732,"x_min":27,"x_max":705,"o":"m 27 712 l 163 712 l 367 154 l 570 712 l 705 712 l 416 0 l 299 0 l 27 712 z "},"ξ":{"ha":690,"x_min":85,"x_max":656,"o":"m 421 970 l 587 970 l 587 868 l 422 868 q 271 757 271 868 q 422 625 271 625 l 580 625 l 580 524 l 429 524 q 207 286 207 524 q 355 102 207 102 l 477 102 q 656 -50 656 102 q 440 -271 656 -189 l 393 -178 q 539 -51 539 -131 q 481 0 539 0 l 358 0 q 85 283 85 0 q 267 575 85 508 q 146 761 146 612 q 421 970 146 970 z "},"ο":{"ha":814,"x_min":68,"x_max":746,"o":"m 193 359 q 407 102 193 102 q 621 359 621 102 q 407 610 621 610 q 193 359 193 610 m 68 356 q 407 712 68 712 q 746 356 746 712 q 407 1 746 1 q 68 356 69 1 z "},"ρ":{"ha":822,"x_min":92,"x_max":754,"o":"m 217 152 q 395 109 291 109 q 631 373 631 109 q 417 608 631 608 q 217 373 217 608 l 217 152 m 92 373 q 418 712 92 712 q 754 373 754 712 q 396 0 754 0 q 217 41 297 0 l 217 -258 l 92 -258 l 92 373 z "},"ς":{"ha":673,"x_min":68,"x_max":640,"o":"m 620 576 q 454 610 544 610 q 190 367 190 610 q 330 165 190 209 l 436 135 q 640 -71 640 85 q 341 -258 640 -258 l 341 -156 q 515 -74 515 -156 q 420 21 515 -9 l 285 62 q 68 364 68 116 q 454 712 68 712 q 620 678 544 712 l 620 576 z "},"σ":{"ha":866,"x_min":68,"x_max":832,"o":"m 193 359 q 407 102 193 102 q 621 359 621 102 q 414 610 621 610 q 193 359 193 610 m 68 356 q 414 712 68 712 l 832 712 l 832 610 l 655 610 q 746 356 746 523 q 407 1 746 1 q 68 356 69 1 z "},"τ":{"ha":576,"x_min":0,"x_max":525,"o":"m 0 712 l 525 712 l 525 610 l 311 610 l 311 251 q 458 101 311 101 q 477 102 467 101 l 477 0 q 425 -3 450 -3 q 186 251 186 -3 l 186 610 l 0 610 l 0 712 z "},"υ":{"ha":821,"x_min":102,"x_max":719,"o":"m 102 290 l 102 712 l 227 712 l 227 290 q 410 88 227 88 q 593 290 593 88 l 593 712 l 719 712 l 719 290 q 410 -14 719 -14 q 102 290 102 -14 z "},"φ":{"ha":1021,"x_min":68,"x_max":953,"o":"m 190 712 l 329 712 q 193 373 193 559 q 441 88 193 102 l 441 444 q 688 712 441 712 q 953 373 953 712 q 566 -14 953 0 l 566 -258 l 441 -258 l 441 -14 q 68 373 68 0 q 190 712 68 559 m 566 88 q 827 373 827 102 q 690 610 827 610 q 566 444 566 610 l 566 88 z "},"χ":{"ha":766,"x_min":27,"x_max":739,"o":"m 314 227 l 27 712 l 166 712 l 383 345 l 600 712 l 739 712 l 453 227 l 739 -258 l 600 -258 l 383 110 l 166 -258 l 27 -258 l 314 227 z "},"ψ":{"ha":1092,"x_min":102,"x_max":990,"o":"m 483 98 l 483 712 l 609 712 l 609 98 q 865 365 865 123 l 865 712 l 990 712 l 990 365 q 609 -5 990 20 l 609 -258 l 483 -258 l 483 -5 q 102 365 102 20 l 102 712 l 227 712 l 227 365 q 483 98 227 123 z "},"ω":{"ha":1136,"x_min":81,"x_max":1055,"o":"m 170 712 l 295 712 q 207 373 207 559 q 353 102 207 102 q 505 559 505 102 l 631 559 q 783 102 631 102 q 929 373 929 102 q 841 712 929 559 l 966 712 q 1055 373 1055 559 q 783 0 1055 0 q 566 216 624 0 q 353 0 512 0 q 81 373 81 0 q 170 712 81 559 z "},"ϊ":{"ha":356,"x_min":-10,"x_max":366,"o":"m 241 712 l 241 0 l 115 0 l 115 712 l 241 712 m 366 970 l 366 854 l 241 854 l 241 970 l 366 970 m 115 970 l 115 854 l -10 854 l -10 970 l 115 970 z "},"ϋ":{"ha":821,"x_min":102,"x_max":719,"o":"m 102 290 l 102 712 l 227 712 l 227 290 q 410 88 227 88 q 593 290 593 88 l 593 712 l 719 712 l 719 290 q 410 -14 719 -14 q 102 290 102 -14 m 599 970 l 599 854 l 473 854 l 473 970 l 599 970 m 348 970 l 348 854 l 222 854 l 222 970 l 348 970 z "},"ό":{"ha":814,"x_min":68,"x_max":746,"o":"m 193 359 q 407 102 193 102 q 621 359 621 102 q 407 610 621 610 q 193 359 193 610 m 68 356 q 407 712 68 712 q 746 356 746 712 q 407 1 746 1 q 68 356 69 1 m 427 970 l 589 970 l 427 808 l 316 808 l 427 970 z "},"ύ":{"ha":821,"x_min":102,"x_max":719,"o":"m 102 290 l 102 712 l 227 712 l 227 290 q 410 88 227 88 q 593 290 593 88 l 593 712 l 719 712 l 719 290 q 410 -14 719 -14 q 102 290 102 -14 m 431 970 l 593 970 l 431 808 l 319 808 l 431 970 z "},"ώ":{"ha":1136,"x_min":81,"x_max":1055,"o":"m 170 712 l 295 712 q 207 373 207 559 q 353 102 207 102 q 505 559 505 102 l 631 559 q 783 102 631 102 q 929 373 929 102 q 841 712 929 559 l 966 712 q 1055 373 1055 559 q 783 0 1055 0 q 566 216 624 0 q 353 0 512 0 q 81 373 81 0 q 170 712 81 559 m 588 970 l 750 970 l 588 808 l 477 808 l 588 970 z "},"":{"ha":1206,"x_min":102,"x_max":1090,"o":"m 1090 712 l 1090 0 l 965 0 l 965 610 l 659 610 l 659 0 l 534 0 l 534 610 l 227 610 l 227 0 l 102 0 l 102 753 q 361 1012 102 1012 q 479 985 421 1012 l 479 883 q 360 910 425 910 q 227 766 227 910 l 227 712 l 534 712 l 534 747 q 833 1019 534 1019 q 1033 978 928 1019 l 1033 876 q 833 917 932 917 q 659 759 659 917 l 659 712 l 1090 712 z "},"":{"ha":1235,"x_min":102,"x_max":1126,"o":"m 534 610 l 227 610 l 227 0 l 102 0 l 102 753 q 361 1012 102 1012 q 479 985 421 1012 l 479 883 q 360 910 425 910 q 227 766 227 910 l 227 712 l 534 712 l 534 747 q 867 1019 534 1019 q 1126 970 989 1019 l 1126 0 l 1001 0 l 1001 904 q 867 917 926 917 q 659 752 659 917 l 659 712 l 873 712 l 873 610 l 659 610 l 659 0 l 534 0 l 534 610 z "},"":{"ha":921,"x_min":102,"x_max":958,"o":"m 534 610 l 227 610 l 227 0 l 102 0 l 102 747 q 361 1005 102 1005 q 479 978 421 1005 l 479 876 q 360 903 425 903 q 227 759 227 903 l 227 712 l 534 712 l 534 753 q 813 1012 534 1012 q 958 985 894 1012 l 958 883 q 812 910 898 910 q 659 759 659 910 l 659 712 l 873 712 l 873 610 l 659 610 l 659 0 l 534 0 l 534 610 z "},"":{"ha":767,"x_min":102,"x_max":652,"o":"m 526 610 l 227 610 l 227 0 l 102 0 l 102 747 q 401 1019 102 1019 q 601 978 496 1019 l 601 876 q 401 917 500 917 q 227 759 227 917 l 227 712 l 652 712 l 652 54 q 547 -270 652 -161 l 441 -199 q 526 54 526 -107 l 526 610 z "},"":{"ha":1206,"x_min":102,"x_max":1090,"o":"m 534 712 l 534 747 q 833 1019 534 1019 q 1033 978 928 1019 l 1033 876 q 833 917 932 917 q 659 759 659 917 l 659 712 l 1090 712 l 1090 54 q 985 -270 1090 -161 l 880 -199 q 965 54 965 -107 l 965 610 l 659 610 l 659 0 l 534 0 l 534 610 l 227 610 l 227 0 l 102 0 l 102 753 q 361 1012 102 1012 q 479 985 421 1012 l 479 883 q 360 910 425 910 q 227 766 227 910 l 227 712 l 534 712 z "},"":{"ha":1273,"x_min":102,"x_max":1205,"o":"m 694 124 q 844 104 756 104 q 1082 375 1082 104 q 867 604 1082 604 q 694 567 769 604 l 694 124 m 569 904 q 435 917 494 917 q 227 752 227 917 l 227 712 l 441 712 l 441 610 l 227 610 l 227 0 l 102 0 l 102 747 q 435 1019 102 1019 q 694 970 557 1019 l 694 678 q 867 712 775 712 q 1205 370 1205 712 q 850 0 1205 0 q 569 29 697 0 l 569 904 z "},"":{"ha":1705,"x_min":102,"x_max":1637,"o":"m 1126 124 q 1276 104 1188 104 q 1514 375 1514 104 q 1299 604 1514 604 q 1126 567 1201 604 l 1126 124 m 534 610 l 227 610 l 227 0 l 102 0 l 102 753 q 361 1012 102 1012 q 479 985 421 1012 l 479 883 q 360 910 425 910 q 227 766 227 910 l 227 712 l 534 712 l 534 747 q 867 1019 534 1019 q 1126 970 989 1019 l 1126 678 q 1299 712 1207 712 q 1637 370 1637 712 q 1282 0 1637 0 q 1001 29 1129 0 l 1001 904 q 867 917 926 917 q 659 752 659 917 l 659 712 l 873 712 l 873 610 l 659 610 l 659 0 l 534 0 l 534 610 z "},"":{"ha":1284,"x_min":102,"x_max":1183,"o":"m 569 904 q 435 917 494 917 q 227 752 227 917 l 227 712 l 441 712 l 441 610 l 227 610 l 227 0 l 102 0 l 102 747 q 435 1019 102 1019 q 694 970 557 1019 l 694 635 q 916 712 785 712 q 1183 447 1183 712 l 1183 0 l 1057 0 l 1057 449 q 899 608 1057 608 q 694 517 791 608 l 694 0 l 569 0 l 569 904 z "},"":{"ha":1716,"x_min":102,"x_max":1615,"o":"m 534 610 l 227 610 l 227 0 l 102 0 l 102 753 q 361 1012 102 1012 q 479 985 421 1012 l 479 883 q 360 910 425 910 q 227 766 227 910 l 227 712 l 534 712 l 534 747 q 867 1019 534 1019 q 1126 970 989 1019 l 1126 635 q 1348 712 1217 712 q 1615 447 1615 712 l 1615 0 l 1489 0 l 1489 449 q 1331 608 1489 608 q 1126 517 1223 608 l 1126 0 l 1001 0 l 1001 904 q 867 917 926 917 q 659 752 659 917 l 659 712 l 873 712 l 873 610 l 659 610 l 659 0 l 534 0 l 534 610 z "},"":{"ha":1268,"x_min":102,"x_max":1224,"o":"m 569 904 q 435 917 494 917 q 227 752 227 917 l 227 712 l 441 712 l 441 610 l 227 610 l 227 0 l 102 0 l 102 747 q 435 1019 102 1019 q 694 970 557 1019 l 694 656 q 934 712 798 712 q 1200 507 1200 712 q 996 300 1200 357 l 1224 0 l 1065 0 l 839 302 l 839 358 q 1074 507 1074 379 q 925 610 1074 610 q 694 547 808 610 l 694 0 l 569 0 l 569 904 z "},"":{"ha":1700,"x_min":102,"x_max":1656,"o":"m 534 610 l 227 610 l 227 0 l 102 0 l 102 753 q 361 1012 102 1012 q 479 985 421 1012 l 479 883 q 360 910 425 910 q 227 766 227 910 l 227 712 l 534 712 l 534 747 q 867 1019 534 1019 q 1126 970 989 1019 l 1126 656 q 1366 712 1230 712 q 1632 507 1632 712 q 1428 300 1632 357 l 1656 0 l 1497 0 l 1271 302 l 1271 358 q 1506 507 1506 379 q 1357 610 1506 610 q 1126 547 1240 610 l 1126 0 l 1001 0 l 1001 904 q 867 917 926 917 q 659 752 659 917 l 659 712 l 873 712 l 873 610 l 659 610 l 659 0 l 534 0 l 534 610 z "},"":{"ha":865,"x_min":78,"x_max":787,"o":"m 210 359 q 436 95 210 95 q 654 359 654 95 q 436 617 654 617 q 210 359 210 617 m 78 355 q 436 719 78 719 q 787 355 787 719 q 436 -7 787 -7 q 78 355 78 -7 z "},"":{"ha":579,"x_min":78,"x_max":535,"o":"m 248 102 l 248 584 l 78 584 l 78 651 l 373 712 l 373 102 l 535 102 l 535 0 l 78 0 l 78 102 l 248 102 z "},"":{"ha":746,"x_min":78,"x_max":688,"o":"m 78 0 l 78 102 q 529 495 529 330 q 346 617 529 617 q 78 543 210 617 l 78 651 q 346 719 210 719 q 654 495 654 719 q 283 102 654 298 l 688 102 l 688 0 l 78 0 z "},"":{"ha":753,"x_min":68,"x_max":654,"o":"m 68 671 q 326 712 203 712 q 654 454 654 712 q 527 268 654 328 q 654 81 654 210 q 326 -190 654 -190 q 68 -149 203 -190 l 68 -41 q 326 -88 203 -88 q 529 81 529 -88 q 358 217 529 217 l 170 217 l 170 319 l 356 319 q 529 454 529 319 q 326 610 529 610 q 68 563 203 610 l 68 671 z "},"":{"ha":790,"x_min":41,"x_max":749,"o":"m 649 -190 l 524 -190 l 524 20 l 41 20 l 41 121 l 410 711 l 542 711 l 172 121 l 524 121 l 524 446 l 649 446 l 649 121 l 749 70 l 749 20 l 649 20 l 649 -190 z "},"":{"ha":777,"x_min":105,"x_max":709,"o":"m 139 712 l 657 712 l 657 610 l 245 610 l 223 338 q 370 353 302 353 q 709 88 709 353 q 329 -197 709 -197 q 105 -156 207 -197 l 105 -47 q 336 -95 207 -95 q 583 88 583 -95 q 370 251 583 251 q 105 217 237 251 l 139 712 z "},"":{"ha":858,"x_min":81,"x_max":780,"o":"m 81 353 q 528 931 81 696 l 593 845 q 258 581 361 726 q 438 610 333 610 q 780 312 780 610 q 425 -7 780 -7 q 81 353 81 -7 m 200 357 q 431 95 200 95 q 657 312 657 95 q 432 509 657 509 q 219 476 307 509 q 200 357 200 449 z "},"":{"ha":719,"x_min":27,"x_max":658,"o":"m 27 712 l 658 712 l 658 610 l 243 -190 l 100 -190 l 528 610 l 27 610 l 27 712 z "},"":{"ha":848,"x_min":78,"x_max":770,"o":"m 78 254 q 249 478 78 405 q 105 684 105 543 q 424 911 105 911 q 743 684 743 911 q 595 478 743 543 q 770 254 770 405 q 424 -7 770 -7 q 78 254 78 -7 m 427 522 q 617 684 617 522 q 418 807 617 807 q 231 684 231 807 q 427 522 231 522 m 427 95 q 644 256 644 95 q 418 420 644 420 q 203 256 203 420 q 427 95 203 95 z "},"":{"ha":858,"x_min":78,"x_max":777,"o":"m 777 358 q 330 -220 777 15 l 265 -134 q 600 130 497 -15 q 420 100 525 100 q 78 399 78 100 q 433 718 78 718 q 777 358 777 718 m 658 354 q 427 616 658 616 q 201 399 201 616 q 426 202 201 202 q 639 235 551 202 q 658 354 658 262 z "},"":{"ha":766,"x_min":61,"x_max":739,"o":"m 378 712 q 534 678 468 712 l 633 712 l 739 712 l 739 610 l 613 610 q 671 466 670 557 q 369 214 671 214 q 244 234 320 214 q 193 150 193 191 q 254 102 193 102 l 487 102 q 715 -64 715 102 q 368 -271 715 -271 q 61 -210 204 -271 l 61 -95 q 371 -170 206 -170 q 590 -64 590 -170 q 489 0 590 0 l 243 0 q 78 125 78 0 q 159 279 78 209 q 75 460 75 339 q 378 712 75 712 m 200 465 q 374 319 200 319 q 545 465 545 319 q 374 610 545 610 q 200 465 200 610 z "},"":{"ha":766,"x_min":61,"x_max":739,"o":"m 378 712 q 534 678 468 712 l 633 712 l 739 712 l 739 610 l 613 610 q 671 466 670 557 q 369 214 671 214 q 244 234 320 214 q 193 150 193 191 q 254 102 193 102 l 487 102 q 715 -64 715 102 q 368 -271 715 -271 q 61 -210 204 -271 l 61 -95 q 371 -170 206 -170 q 590 -64 590 -170 q 489 0 590 0 l 243 0 q 78 125 78 0 q 159 279 78 209 q 75 460 75 339 q 378 712 75 712 m 200 465 q 374 319 200 319 q 545 465 545 319 q 374 610 545 610 q 200 465 200 610 m 328 970 l 429 970 l 548 793 l 446 793 l 378 902 l 311 793 l 209 793 l 328 970 z "},"":{"ha":766,"x_min":61,"x_max":739,"o":"m 378 712 q 534 678 468 712 l 633 712 l 739 712 l 739 610 l 613 610 q 671 466 670 557 q 369 214 671 214 q 244 234 320 214 q 193 150 193 191 q 254 102 193 102 l 487 102 q 715 -64 715 102 q 368 -271 715 -271 q 61 -210 204 -271 l 61 -95 q 371 -170 206 -170 q 590 -64 590 -170 q 489 0 590 0 l 243 0 q 78 125 78 0 q 159 279 78 209 q 75 460 75 339 q 378 712 75 712 m 200 465 q 374 319 200 319 q 545 465 545 319 q 374 610 545 610 q 200 465 200 610 m 193 970 l 285 970 q 373 868 285 868 q 461 970 461 868 l 553 970 q 373 793 553 793 q 193 970 193 793 z "},"":{"ha":766,"x_min":61,"x_max":739,"o":"m 378 712 q 534 678 468 712 l 633 712 l 739 712 l 739 610 l 613 610 q 671 466 670 557 q 369 214 671 214 q 244 234 320 214 q 193 150 193 191 q 254 102 193 102 l 487 102 q 715 -64 715 102 q 368 -271 715 -271 q 61 -210 204 -271 l 61 -95 q 371 -170 206 -170 q 590 -64 590 -170 q 489 0 590 0 l 243 0 q 78 125 78 0 q 159 279 78 209 q 75 460 75 339 q 378 712 75 712 m 200 465 q 374 319 200 319 q 545 465 545 319 q 374 610 545 610 q 200 465 200 610 m 439 970 l 439 841 l 300 841 l 300 970 l 439 970 z "},"":{"ha":766,"x_min":61,"x_max":739,"o":"m 378 712 q 534 678 468 712 l 633 712 l 739 712 l 739 610 l 613 610 q 671 466 670 557 q 369 214 671 214 q 244 234 320 214 q 193 150 193 191 q 254 102 193 102 l 487 102 q 715 -64 715 102 q 368 -271 715 -271 q 61 -210 204 -271 l 61 -95 q 371 -170 206 -170 q 590 -64 590 -170 q 489 0 590 0 l 243 0 q 78 125 78 0 q 159 279 78 209 q 75 460 75 339 q 378 712 75 712 m 200 465 q 374 319 200 319 q 545 465 545 319 q 374 610 545 610 q 200 465 200 610 m 518 970 l 416 780 l 291 780 l 393 970 l 518 970 z "},"":{"ha":741,"x_min":102,"x_max":747,"o":"m 736 712 l 438 391 l 747 0 l 580 0 l 319 342 l 319 412 l 582 712 l 736 712 m 102 0 l 102 970 l 227 970 l 227 0 l 102 0 z "},"":{"ha":741,"x_min":102,"x_max":747,"o":"m 736 712 l 438 391 l 747 0 l 580 0 l 319 342 l 319 412 l 582 712 l 736 712 m 102 0 l 102 970 l 227 970 l 227 0 l 102 0 m 469 -68 l 367 -258 l 241 -258 l 343 -68 l 469 -68 z "},"":{"ha":1045,"x_min":115,"x_max":977,"o":"m 115 0 l 115 617 q 566 983 115 983 q 949 929 724 983 l 949 841 l 654 547 q 977 285 977 544 q 642 -1 977 -1 q 417 46 523 -1 l 417 155 q 644 100 524 100 q 845 285 845 100 q 611 456 845 455 l 519 456 l 519 543 l 816 854 q 566 882 691 882 q 241 624 241 882 l 241 0 l 115 0 z "}}}
